G04 #@! TF.GenerationSoftware,KiCad,Pcbnew,(6.0.6-0)*
G04 #@! TF.CreationDate,2023-01-29T13:03:51-05:00*
G04 #@! TF.ProjectId,RGB Blaster 8DIN Adapter,52474220-426c-4617-9374-657220384449,1*
G04 #@! TF.SameCoordinates,Original*
G04 #@! TF.FileFunction,Legend,Top*
G04 #@! TF.FilePolarity,Positive*
%FSLAX46Y46*%
G04 Gerber Fmt 4.6, Leading zero omitted, Abs format (unit mm)*
G04 Created by KiCad (PCBNEW (6.0.6-0)) date 2023-01-29 13:03:51*
%MOMM*%
%LPD*%
G01*
G04 APERTURE LIST*
G04 Aperture macros list*
%AMRoundRect*
0 Rectangle with rounded corners*
0 $1 Rounding radius*
0 $2 $3 $4 $5 $6 $7 $8 $9 X,Y pos of 4 corners*
0 Add a 4 corners polygon primitive as box body*
4,1,4,$2,$3,$4,$5,$6,$7,$8,$9,$2,$3,0*
0 Add four circle primitives for the rounded corners*
1,1,$1+$1,$2,$3*
1,1,$1+$1,$4,$5*
1,1,$1+$1,$6,$7*
1,1,$1+$1,$8,$9*
0 Add four rect primitives between the rounded corners*
20,1,$1+$1,$2,$3,$4,$5,0*
20,1,$1+$1,$4,$5,$6,$7,0*
20,1,$1+$1,$6,$7,$8,$9,0*
20,1,$1+$1,$8,$9,$2,$3,0*%
G04 Aperture macros list end*
%ADD10C,0.127000*%
%ADD11C,0.150000*%
%ADD12C,0.120000*%
%ADD13C,1.601600*%
%ADD14RoundRect,0.050800X-1.573413X-1.444601X2.135323X0.053825X1.573413X1.444601X-2.135323X-0.053825X0*%
%ADD15RoundRect,0.288300X-0.120937X0.322925X-0.316303X-0.137328X0.120937X-0.322925X0.316303X0.137328X0*%
%ADD16RoundRect,0.288300X-0.322925X-0.120937X0.137328X-0.316303X0.322925X0.120937X-0.137328X0.316303X0*%
%ADD17C,1.625600*%
%ADD18RoundRect,0.350800X-0.021530X0.854129X-0.577840X0.629365X0.021530X-0.854129X0.577840X-0.629365X0*%
G04 APERTURE END LIST*
D10*
X139255273Y-107101614D02*
X139400416Y-107101614D01*
X139472987Y-107137900D01*
X139545558Y-107210471D01*
X139581844Y-107355614D01*
X139581844Y-107609614D01*
X139545558Y-107754757D01*
X139472987Y-107827328D01*
X139400416Y-107863614D01*
X139255273Y-107863614D01*
X139182701Y-107827328D01*
X139110130Y-107754757D01*
X139073844Y-107609614D01*
X139073844Y-107355614D01*
X139110130Y-107210471D01*
X139182701Y-107137900D01*
X139255273Y-107101614D01*
X140234987Y-107355614D02*
X140234987Y-107863614D01*
X139908416Y-107355614D02*
X139908416Y-107754757D01*
X139944701Y-107827328D01*
X140017273Y-107863614D01*
X140126130Y-107863614D01*
X140198701Y-107827328D01*
X140234987Y-107791042D01*
X140488987Y-107355614D02*
X140779273Y-107355614D01*
X140597844Y-107101614D02*
X140597844Y-107754757D01*
X140634130Y-107827328D01*
X140706701Y-107863614D01*
X140779273Y-107863614D01*
X140996987Y-107827328D02*
X141069558Y-107863614D01*
X141214701Y-107863614D01*
X141287273Y-107827328D01*
X141323558Y-107754757D01*
X141323558Y-107718471D01*
X141287273Y-107645900D01*
X141214701Y-107609614D01*
X141105844Y-107609614D01*
X141033273Y-107573328D01*
X140996987Y-107500757D01*
X140996987Y-107464471D01*
X141033273Y-107391900D01*
X141105844Y-107355614D01*
X141214701Y-107355614D01*
X141287273Y-107391900D01*
X141650130Y-107863614D02*
X141650130Y-107355614D01*
X141650130Y-107101614D02*
X141613844Y-107137900D01*
X141650130Y-107174185D01*
X141686416Y-107137900D01*
X141650130Y-107101614D01*
X141650130Y-107174185D01*
X142339558Y-107863614D02*
X142339558Y-107101614D01*
X142339558Y-107827328D02*
X142266987Y-107863614D01*
X142121844Y-107863614D01*
X142049273Y-107827328D01*
X142012987Y-107791042D01*
X141976701Y-107718471D01*
X141976701Y-107500757D01*
X142012987Y-107428185D01*
X142049273Y-107391900D01*
X142121844Y-107355614D01*
X142266987Y-107355614D01*
X142339558Y-107391900D01*
X142992701Y-107827328D02*
X142920130Y-107863614D01*
X142774987Y-107863614D01*
X142702416Y-107827328D01*
X142666130Y-107754757D01*
X142666130Y-107464471D01*
X142702416Y-107391900D01*
X142774987Y-107355614D01*
X142920130Y-107355614D01*
X142992701Y-107391900D01*
X143028987Y-107464471D01*
X143028987Y-107537042D01*
X142666130Y-107609614D01*
X135715424Y-105755317D02*
X135715424Y-106299603D01*
X135679138Y-106408460D01*
X135606567Y-106481031D01*
X135497710Y-106517317D01*
X135425138Y-106517317D01*
X136368567Y-106481031D02*
X136295996Y-106517317D01*
X136150853Y-106517317D01*
X136078281Y-106481031D01*
X136041996Y-106408460D01*
X136041996Y-106118174D01*
X136078281Y-106045603D01*
X136150853Y-106009317D01*
X136295996Y-106009317D01*
X136368567Y-106045603D01*
X136404853Y-106118174D01*
X136404853Y-106190745D01*
X136041996Y-106263317D01*
X136622567Y-106009317D02*
X136912853Y-106009317D01*
X136731424Y-106517317D02*
X136731424Y-105864174D01*
X136767710Y-105791603D01*
X136840281Y-105755317D01*
X136912853Y-105755317D01*
X137057996Y-106009317D02*
X137348281Y-106009317D01*
X137166853Y-106517317D02*
X137166853Y-105864174D01*
X137203138Y-105791603D01*
X137275710Y-105755317D01*
X137348281Y-105755317D01*
X138618281Y-106444745D02*
X138581996Y-106481031D01*
X138473138Y-106517317D01*
X138400567Y-106517317D01*
X138291710Y-106481031D01*
X138219138Y-106408460D01*
X138182853Y-106335888D01*
X138146567Y-106190745D01*
X138146567Y-106081888D01*
X138182853Y-105936745D01*
X138219138Y-105864174D01*
X138291710Y-105791603D01*
X138400567Y-105755317D01*
X138473138Y-105755317D01*
X138581996Y-105791603D01*
X138618281Y-105827888D01*
X138944853Y-106517317D02*
X138944853Y-105755317D01*
X139271424Y-106517317D02*
X139271424Y-106118174D01*
X139235138Y-106045603D01*
X139162567Y-106009317D01*
X139053710Y-106009317D01*
X138981138Y-106045603D01*
X138944853Y-106081888D01*
X139924567Y-106481031D02*
X139851996Y-106517317D01*
X139706853Y-106517317D01*
X139634281Y-106481031D01*
X139597996Y-106408460D01*
X139597996Y-106118174D01*
X139634281Y-106045603D01*
X139706853Y-106009317D01*
X139851996Y-106009317D01*
X139924567Y-106045603D01*
X139960853Y-106118174D01*
X139960853Y-106190745D01*
X139597996Y-106263317D01*
X140287424Y-106009317D02*
X140287424Y-106517317D01*
X140287424Y-106081888D02*
X140323710Y-106045603D01*
X140396281Y-106009317D01*
X140505138Y-106009317D01*
X140577710Y-106045603D01*
X140613996Y-106118174D01*
X140613996Y-106517317D01*
X141013138Y-106481031D02*
X141013138Y-106517317D01*
X140976853Y-106589888D01*
X140940567Y-106626174D01*
X141883996Y-105827888D02*
X141920281Y-105791603D01*
X141992853Y-105755317D01*
X142174281Y-105755317D01*
X142246853Y-105791603D01*
X142283138Y-105827888D01*
X142319424Y-105900460D01*
X142319424Y-105973031D01*
X142283138Y-106081888D01*
X141847710Y-106517317D01*
X142319424Y-106517317D01*
X142791138Y-105755317D02*
X142863710Y-105755317D01*
X142936281Y-105791603D01*
X142972567Y-105827888D01*
X143008853Y-105900460D01*
X143045138Y-106045603D01*
X143045138Y-106227031D01*
X143008853Y-106372174D01*
X142972567Y-106444745D01*
X142936281Y-106481031D01*
X142863710Y-106517317D01*
X142791138Y-106517317D01*
X142718567Y-106481031D01*
X142682281Y-106444745D01*
X142645996Y-106372174D01*
X142609710Y-106227031D01*
X142609710Y-106045603D01*
X142645996Y-105900460D01*
X142682281Y-105827888D01*
X142718567Y-105791603D01*
X142791138Y-105755317D01*
X143335424Y-105827888D02*
X143371710Y-105791603D01*
X143444281Y-105755317D01*
X143625710Y-105755317D01*
X143698281Y-105791603D01*
X143734567Y-105827888D01*
X143770853Y-105900460D01*
X143770853Y-105973031D01*
X143734567Y-106081888D01*
X143299138Y-106517317D01*
X143770853Y-106517317D01*
X144024853Y-105755317D02*
X144496567Y-105755317D01*
X144242567Y-106045603D01*
X144351424Y-106045603D01*
X144423996Y-106081888D01*
X144460281Y-106118174D01*
X144496567Y-106190745D01*
X144496567Y-106372174D01*
X144460281Y-106444745D01*
X144423996Y-106481031D01*
X144351424Y-106517317D01*
X144133710Y-106517317D01*
X144061138Y-106481031D01*
X144024853Y-106444745D01*
X137840003Y-101350156D02*
X137586003Y-100987299D01*
X137404574Y-101350156D02*
X137404574Y-100588156D01*
X137694860Y-100588156D01*
X137767431Y-100624442D01*
X137803717Y-100660727D01*
X137840003Y-100733299D01*
X137840003Y-100842156D01*
X137803717Y-100914727D01*
X137767431Y-100951013D01*
X137694860Y-100987299D01*
X137404574Y-100987299D01*
X138565717Y-100624442D02*
X138493146Y-100588156D01*
X138384288Y-100588156D01*
X138275431Y-100624442D01*
X138202860Y-100697013D01*
X138166574Y-100769584D01*
X138130288Y-100914727D01*
X138130288Y-101023584D01*
X138166574Y-101168727D01*
X138202860Y-101241299D01*
X138275431Y-101313870D01*
X138384288Y-101350156D01*
X138456860Y-101350156D01*
X138565717Y-101313870D01*
X138602003Y-101277584D01*
X138602003Y-101023584D01*
X138456860Y-101023584D01*
X139182574Y-100951013D02*
X139291431Y-100987299D01*
X139327717Y-101023584D01*
X139364003Y-101096156D01*
X139364003Y-101205013D01*
X139327717Y-101277584D01*
X139291431Y-101313870D01*
X139218860Y-101350156D01*
X138928574Y-101350156D01*
X138928574Y-100588156D01*
X139182574Y-100588156D01*
X139255146Y-100624442D01*
X139291431Y-100660727D01*
X139327717Y-100733299D01*
X139327717Y-100805870D01*
X139291431Y-100878442D01*
X139255146Y-100914727D01*
X139182574Y-100951013D01*
X138928574Y-100951013D01*
X140380003Y-100914727D02*
X140307431Y-100878442D01*
X140271146Y-100842156D01*
X140234860Y-100769584D01*
X140234860Y-100733299D01*
X140271146Y-100660727D01*
X140307431Y-100624442D01*
X140380003Y-100588156D01*
X140525146Y-100588156D01*
X140597717Y-100624442D01*
X140634003Y-100660727D01*
X140670288Y-100733299D01*
X140670288Y-100769584D01*
X140634003Y-100842156D01*
X140597717Y-100878442D01*
X140525146Y-100914727D01*
X140380003Y-100914727D01*
X140307431Y-100951013D01*
X140271146Y-100987299D01*
X140234860Y-101059870D01*
X140234860Y-101205013D01*
X140271146Y-101277584D01*
X140307431Y-101313870D01*
X140380003Y-101350156D01*
X140525146Y-101350156D01*
X140597717Y-101313870D01*
X140634003Y-101277584D01*
X140670288Y-101205013D01*
X140670288Y-101059870D01*
X140634003Y-100987299D01*
X140597717Y-100951013D01*
X140525146Y-100914727D01*
X141105717Y-101350156D02*
X141033146Y-101313870D01*
X140996860Y-101241299D01*
X140996860Y-100588156D01*
X141722574Y-101350156D02*
X141722574Y-100951013D01*
X141686288Y-100878442D01*
X141613717Y-100842156D01*
X141468574Y-100842156D01*
X141396003Y-100878442D01*
X141722574Y-101313870D02*
X141650003Y-101350156D01*
X141468574Y-101350156D01*
X141396003Y-101313870D01*
X141359717Y-101241299D01*
X141359717Y-101168727D01*
X141396003Y-101096156D01*
X141468574Y-101059870D01*
X141650003Y-101059870D01*
X141722574Y-101023584D01*
X142049146Y-101313870D02*
X142121717Y-101350156D01*
X142266860Y-101350156D01*
X142339431Y-101313870D01*
X142375717Y-101241299D01*
X142375717Y-101205013D01*
X142339431Y-101132442D01*
X142266860Y-101096156D01*
X142158003Y-101096156D01*
X142085431Y-101059870D01*
X142049146Y-100987299D01*
X142049146Y-100951013D01*
X142085431Y-100878442D01*
X142158003Y-100842156D01*
X142266860Y-100842156D01*
X142339431Y-100878442D01*
X142593431Y-100842156D02*
X142883717Y-100842156D01*
X142702288Y-100588156D02*
X142702288Y-101241299D01*
X142738574Y-101313870D01*
X142811146Y-101350156D01*
X142883717Y-101350156D01*
X143428003Y-101313870D02*
X143355431Y-101350156D01*
X143210288Y-101350156D01*
X143137717Y-101313870D01*
X143101431Y-101241299D01*
X143101431Y-100951013D01*
X143137717Y-100878442D01*
X143210288Y-100842156D01*
X143355431Y-100842156D01*
X143428003Y-100878442D01*
X143464288Y-100951013D01*
X143464288Y-101023584D01*
X143101431Y-101096156D01*
X143790860Y-101350156D02*
X143790860Y-100842156D01*
X143790860Y-100987299D02*
X143827146Y-100914727D01*
X143863431Y-100878442D01*
X143936003Y-100842156D01*
X144008574Y-100842156D01*
X138656431Y-102359262D02*
X139019288Y-102359262D01*
X138583860Y-102576976D02*
X138837860Y-101814976D01*
X139091860Y-102576976D01*
X139672431Y-102576976D02*
X139672431Y-101814976D01*
X139672431Y-102540690D02*
X139599860Y-102576976D01*
X139454717Y-102576976D01*
X139382146Y-102540690D01*
X139345860Y-102504404D01*
X139309574Y-102431833D01*
X139309574Y-102214119D01*
X139345860Y-102141547D01*
X139382146Y-102105262D01*
X139454717Y-102068976D01*
X139599860Y-102068976D01*
X139672431Y-102105262D01*
X140361860Y-102576976D02*
X140361860Y-102177833D01*
X140325574Y-102105262D01*
X140253003Y-102068976D01*
X140107860Y-102068976D01*
X140035288Y-102105262D01*
X140361860Y-102540690D02*
X140289288Y-102576976D01*
X140107860Y-102576976D01*
X140035288Y-102540690D01*
X139999003Y-102468119D01*
X139999003Y-102395547D01*
X140035288Y-102322976D01*
X140107860Y-102286690D01*
X140289288Y-102286690D01*
X140361860Y-102250404D01*
X140724717Y-102068976D02*
X140724717Y-102830976D01*
X140724717Y-102105262D02*
X140797288Y-102068976D01*
X140942431Y-102068976D01*
X141015003Y-102105262D01*
X141051288Y-102141547D01*
X141087574Y-102214119D01*
X141087574Y-102431833D01*
X141051288Y-102504404D01*
X141015003Y-102540690D01*
X140942431Y-102576976D01*
X140797288Y-102576976D01*
X140724717Y-102540690D01*
X141305288Y-102068976D02*
X141595574Y-102068976D01*
X141414146Y-101814976D02*
X141414146Y-102468119D01*
X141450431Y-102540690D01*
X141523003Y-102576976D01*
X141595574Y-102576976D01*
X142139860Y-102540690D02*
X142067288Y-102576976D01*
X141922146Y-102576976D01*
X141849574Y-102540690D01*
X141813288Y-102468119D01*
X141813288Y-102177833D01*
X141849574Y-102105262D01*
X141922146Y-102068976D01*
X142067288Y-102068976D01*
X142139860Y-102105262D01*
X142176146Y-102177833D01*
X142176146Y-102250404D01*
X141813288Y-102322976D01*
X142502717Y-102576976D02*
X142502717Y-102068976D01*
X142502717Y-102214119D02*
X142539003Y-102141547D01*
X142575288Y-102105262D01*
X142647860Y-102068976D01*
X142720431Y-102068976D01*
X128694076Y-101423484D02*
X128613196Y-101417027D01*
X128565959Y-101396976D01*
X128505130Y-101343282D01*
X128491537Y-101309638D01*
X128497995Y-101228758D01*
X128518046Y-101181522D01*
X128571740Y-101120693D01*
X128706314Y-101066321D01*
X128787194Y-101072779D01*
X128834430Y-101092830D01*
X128895260Y-101146524D01*
X128908853Y-101180167D01*
X128902395Y-101261047D01*
X128882344Y-101308284D01*
X128828650Y-101369113D01*
X128694076Y-101423484D01*
X128640382Y-101484314D01*
X128620331Y-101531550D01*
X128613873Y-101612430D01*
X128668245Y-101747004D01*
X128729074Y-101800698D01*
X128776310Y-101820749D01*
X128857190Y-101827207D01*
X128991764Y-101772835D01*
X129045458Y-101712006D01*
X129065509Y-101664770D01*
X129071967Y-101583890D01*
X129017595Y-101449316D01*
X128956766Y-101395621D01*
X128909530Y-101375571D01*
X128828650Y-101369113D01*
X129429130Y-101596128D02*
X129143680Y-100889614D01*
X129311898Y-100821650D01*
X129426421Y-100814514D01*
X129520894Y-100854616D01*
X129581723Y-100908310D01*
X129669738Y-101029291D01*
X129710517Y-101130222D01*
X129731245Y-101278389D01*
X129724787Y-101359269D01*
X129684686Y-101453742D01*
X129597348Y-101528164D01*
X129429130Y-101596128D01*
X130135644Y-101310678D02*
X129850194Y-100604164D01*
X130472080Y-101174749D02*
X130186629Y-100468235D01*
X130875802Y-101011635D01*
X130590352Y-100305121D01*
D11*
X125770238Y-103940499D02*
X125201658Y-104061272D01*
X125546963Y-104466502D02*
X124626458Y-104075771D01*
X124775308Y-103725102D01*
X124856354Y-103656042D01*
X124918794Y-103630814D01*
X125025067Y-103624193D01*
X125156568Y-103680012D01*
X125225628Y-103761058D01*
X125250856Y-103823498D01*
X125257477Y-103929771D01*
X125108627Y-104280440D01*
X126142362Y-103063828D02*
X125919087Y-103589831D01*
X126030725Y-103326829D02*
X125110220Y-102936098D01*
X125204508Y-103079584D01*
X125254963Y-103204464D01*
X125261584Y-103310737D01*
X134780835Y-100091303D02*
X134212255Y-100212076D01*
X134557560Y-100617306D02*
X133637055Y-100226575D01*
X133785905Y-99875906D01*
X133866951Y-99806846D01*
X133929391Y-99781618D01*
X134035664Y-99774997D01*
X134167165Y-99830816D01*
X134236225Y-99911862D01*
X134261453Y-99974302D01*
X134268074Y-100080575D01*
X134119224Y-100431244D01*
X133990573Y-99393737D02*
X134232455Y-98823901D01*
X134452879Y-99279586D01*
X134508698Y-99148085D01*
X134589744Y-99079024D01*
X134652184Y-99053797D01*
X134758457Y-99047176D01*
X134977625Y-99140207D01*
X135046686Y-99221253D01*
X135071913Y-99283693D01*
X135078534Y-99389966D01*
X134966897Y-99652968D01*
X134885851Y-99722029D01*
X134823411Y-99747256D01*
D12*
X125877157Y-100885948D02*
X125678100Y-101354898D01*
X126839084Y-101294262D02*
X126640027Y-101763212D01*
X131826768Y-99300677D02*
X132295718Y-99499734D01*
X132235082Y-98338750D02*
X132704032Y-98537807D01*
%LPC*%
D13*
X150381923Y-106377418D03*
X148527555Y-107126632D03*
X151487077Y-103773837D03*
X149632710Y-104523051D03*
X147778342Y-105272264D03*
X145923974Y-106021477D03*
X150274272Y-102106773D03*
X147492721Y-103230593D03*
X145638353Y-103979806D03*
D14*
X146662140Y-99866795D03*
D15*
X126615134Y-100484619D03*
X125902050Y-102164541D03*
D16*
X131425439Y-98562700D03*
X133105361Y-99275784D03*
D17*
X133003867Y-106744053D03*
X131149500Y-107493266D03*
X133839492Y-103526751D03*
X131076484Y-104643079D03*
D18*
X135886229Y-102559607D03*
X126178614Y-106481738D03*
D17*
X128322748Y-105755661D03*
X132766138Y-101911199D03*
X130199905Y-102473469D03*
X127972597Y-103847915D03*
M02*
