G04 #@! TF.GenerationSoftware,KiCad,Pcbnew,(6.0.6-0)*
G04 #@! TF.CreationDate,2023-01-29T13:03:51-05:00*
G04 #@! TF.ProjectId,RGB Blaster 8DIN Adapter,52474220-426c-4617-9374-657220384449,1*
G04 #@! TF.SameCoordinates,Original*
G04 #@! TF.FileFunction,Copper,L1,Top*
G04 #@! TF.FilePolarity,Positive*
%FSLAX46Y46*%
G04 Gerber Fmt 4.6, Leading zero omitted, Abs format (unit mm)*
G04 Created by KiCad (PCBNEW (6.0.6-0)) date 2023-01-29 13:03:51*
%MOMM*%
%LPD*%
G01*
G04 APERTURE LIST*
G04 Aperture macros list*
%AMRoundRect*
0 Rectangle with rounded corners*
0 $1 Rounding radius*
0 $2 $3 $4 $5 $6 $7 $8 $9 X,Y pos of 4 corners*
0 Add a 4 corners polygon primitive as box body*
4,1,4,$2,$3,$4,$5,$6,$7,$8,$9,$2,$3,0*
0 Add four circle primitives for the rounded corners*
1,1,$1+$1,$2,$3*
1,1,$1+$1,$4,$5*
1,1,$1+$1,$6,$7*
1,1,$1+$1,$8,$9*
0 Add four rect primitives between the rounded corners*
20,1,$1+$1,$2,$3,$4,$5,0*
20,1,$1+$1,$4,$5,$6,$7,0*
20,1,$1+$1,$6,$7,$8,$9,0*
20,1,$1+$1,$8,$9,$2,$3,0*%
%AMRotRect*
0 Rectangle, with rotation*
0 The origin of the aperture is its center*
0 $1 length*
0 $2 width*
0 $3 Rotation angle, in degrees counterclockwise*
0 Add horizontal line*
21,1,$1,$2,0,0,$3*%
G04 Aperture macros list end*
G04 #@! TA.AperFunction,ComponentPad*
%ADD10C,1.500000*%
G04 #@! TD*
G04 #@! TA.AperFunction,ComponentPad*
%ADD11RotRect,4.000000X1.500000X22.000000*%
G04 #@! TD*
G04 #@! TA.AperFunction,SMDPad,CuDef*
%ADD12RoundRect,0.237500X-0.120937X0.322925X-0.316303X-0.137328X0.120937X-0.322925X0.316303X0.137328X0*%
G04 #@! TD*
G04 #@! TA.AperFunction,SMDPad,CuDef*
%ADD13RoundRect,0.237500X-0.322925X-0.120937X0.137328X-0.316303X0.322925X0.120937X-0.137328X0.316303X0*%
G04 #@! TD*
G04 #@! TA.AperFunction,ComponentPad*
%ADD14C,1.524000*%
G04 #@! TD*
G04 #@! TA.AperFunction,ComponentPad*
%ADD15RoundRect,0.300000X-0.021530X0.854129X-0.577840X0.629365X0.021530X-0.854129X0.577840X-0.629365X0*%
G04 #@! TD*
G04 #@! TA.AperFunction,ViaPad*
%ADD16C,0.700000*%
G04 #@! TD*
G04 #@! TA.AperFunction,Conductor*
%ADD17C,0.250000*%
G04 #@! TD*
G04 APERTURE END LIST*
D10*
X150381923Y-106377418D03*
X148527555Y-107126632D03*
X151487077Y-103773837D03*
X149632710Y-104523051D03*
X147778342Y-105272264D03*
X145923974Y-106021477D03*
X150274272Y-102106773D03*
X147492721Y-103230593D03*
X145638353Y-103979806D03*
D11*
X146662140Y-99866795D03*
D12*
X126615134Y-100484619D03*
X125902050Y-102164541D03*
D13*
X131425439Y-98562700D03*
X133105361Y-99275784D03*
D14*
X133003867Y-106744053D03*
X131149500Y-107493266D03*
X133839492Y-103526751D03*
X131076484Y-104643079D03*
D15*
X135886229Y-102559607D03*
X126178614Y-106481738D03*
D14*
X128322748Y-105755661D03*
X132766138Y-101911199D03*
X130199905Y-102473469D03*
X127972597Y-103847915D03*
D16*
X149069605Y-103109239D03*
X137715810Y-106789600D03*
X143367251Y-104291462D03*
X138612036Y-104622156D03*
X129279708Y-107330005D03*
D17*
X132766138Y-101911197D02*
X131419198Y-98577404D01*
X137225137Y-101845994D02*
X135988446Y-100609305D01*
X131419198Y-98577404D02*
X131425438Y-98562699D01*
X153129983Y-104009367D02*
X152084833Y-101422524D01*
X152084833Y-101422524D02*
X149467769Y-100311646D01*
X150381923Y-106377422D02*
X152485582Y-105527489D01*
X152485582Y-105527489D02*
X153129983Y-104009367D01*
X145215221Y-101845994D02*
X149245931Y-100217482D01*
X135988446Y-100609305D02*
X132766141Y-101911204D01*
X137225137Y-101845994D02*
X145215221Y-101845994D01*
X149245931Y-100217482D02*
X149467769Y-100311646D01*
X136804405Y-107525170D02*
X146140257Y-107525168D01*
X146140418Y-107525006D02*
X147541562Y-107525005D01*
X128322743Y-105755659D02*
X127862735Y-106839371D01*
X128913774Y-109440786D02*
X130448799Y-110092364D01*
X146140257Y-107525168D02*
X146140418Y-107525006D01*
X130448799Y-110092364D02*
X136803637Y-107524843D01*
X147541562Y-107525005D02*
X148527557Y-107126635D01*
X136803637Y-107524843D02*
X136804405Y-107525170D01*
X127862735Y-106839371D02*
X128913774Y-109440786D01*
X136416567Y-106041600D02*
X136414626Y-106043541D01*
X136414626Y-106043541D02*
X133821637Y-107091174D01*
X131153264Y-107491745D02*
X131149706Y-107490235D01*
X145907223Y-106041602D02*
X136416567Y-106041600D01*
X133821637Y-107091174D02*
X133003867Y-106744052D01*
X145922934Y-106025890D02*
X145907223Y-106041602D01*
X133003867Y-106744052D02*
X131153264Y-107491745D01*
X133446468Y-105128828D02*
X134266595Y-105476948D01*
X126615135Y-100484616D02*
X126614419Y-100486304D01*
X126614419Y-100486304D02*
X127972597Y-103847913D01*
X145662080Y-102619707D02*
X145662929Y-102618860D01*
X129899814Y-105688155D02*
X130954263Y-106135742D01*
X138798007Y-102619705D02*
X145662080Y-102619707D01*
X137088083Y-104329632D02*
X138798007Y-102619705D01*
X130954263Y-106135742D02*
X133446468Y-105128828D01*
X148643594Y-101414593D02*
X150274273Y-102106775D01*
X127972597Y-103847913D02*
X129401335Y-104454375D01*
X145662929Y-102618860D02*
X148643594Y-101414593D01*
X137088083Y-104336997D02*
X137088083Y-104329632D01*
X129401335Y-104454375D02*
X129899814Y-105688155D01*
X134266595Y-105476948D02*
X137088083Y-104336997D01*
G04 #@! TA.AperFunction,Conductor*
G36*
X133578622Y-106245819D02*
G01*
X133582914Y-106249111D01*
X133653694Y-106336047D01*
X133654012Y-106336457D01*
X133722475Y-106429319D01*
X133786559Y-106518289D01*
X133786585Y-106518323D01*
X133786600Y-106518343D01*
X133827442Y-106571373D01*
X133849244Y-106599681D01*
X133849415Y-106599868D01*
X133849422Y-106599876D01*
X133913363Y-106669687D01*
X133913369Y-106669692D01*
X133913667Y-106670018D01*
X133982962Y-106725823D01*
X133983548Y-106726110D01*
X133983552Y-106726112D01*
X134008239Y-106738182D01*
X134060263Y-106763618D01*
X134148705Y-106779927D01*
X134149479Y-106779862D01*
X134149482Y-106779862D01*
X134250798Y-106771325D01*
X134250800Y-106771325D01*
X134251424Y-106771272D01*
X134361281Y-106737349D01*
X134370196Y-106738182D01*
X134375580Y-106744145D01*
X134460827Y-106955139D01*
X134460749Y-106964094D01*
X134454377Y-106970364D01*
X134303019Y-107031765D01*
X134166333Y-107087712D01*
X134049300Y-107136061D01*
X133946074Y-107179059D01*
X133850811Y-107218955D01*
X133757663Y-107257996D01*
X133757662Y-107257993D01*
X133757646Y-107258003D01*
X133660815Y-107298417D01*
X133660785Y-107298430D01*
X133554370Y-107342489D01*
X133554332Y-107342505D01*
X133432458Y-107392468D01*
X133432420Y-107392483D01*
X133297703Y-107447163D01*
X133288749Y-107447099D01*
X133283915Y-107443304D01*
X133095684Y-107190208D01*
X133095683Y-107190207D01*
X133094295Y-107188341D01*
X132653155Y-106595187D01*
X133006343Y-106460457D01*
X133008406Y-106459670D01*
X133008407Y-106459670D01*
X133569671Y-106245566D01*
X133578622Y-106245819D01*
G37*
G04 #@! TD.AperFunction*
G04 #@! TA.AperFunction,Conductor*
G36*
X132310516Y-100457446D02*
G01*
X132316561Y-100463301D01*
X132387052Y-100615569D01*
X132387056Y-100615576D01*
X132387203Y-100615894D01*
X132387388Y-100616193D01*
X132449410Y-100716550D01*
X132465719Y-100742940D01*
X132548002Y-100841587D01*
X132548317Y-100841869D01*
X132548320Y-100841872D01*
X132618773Y-100904908D01*
X132634625Y-100919092D01*
X132726162Y-100982707D01*
X132726337Y-100982809D01*
X132726342Y-100982813D01*
X132760758Y-101003024D01*
X132823184Y-101039686D01*
X132823238Y-101039716D01*
X132926119Y-101097203D01*
X132926408Y-101097370D01*
X133035642Y-101162558D01*
X133036287Y-101162972D01*
X133066609Y-101183875D01*
X133152887Y-101243353D01*
X133277576Y-101346332D01*
X132912786Y-102254685D01*
X132911919Y-102256843D01*
X132911509Y-102257262D01*
X132903273Y-102260777D01*
X132898367Y-102259756D01*
X132663062Y-102154400D01*
X132663054Y-102154397D01*
X132417183Y-102044310D01*
X132013653Y-101863634D01*
X132007504Y-101857127D01*
X132006810Y-101851643D01*
X132023952Y-101699946D01*
X132024110Y-101698944D01*
X132052044Y-101560636D01*
X132052220Y-101559890D01*
X132085517Y-101437108D01*
X132085609Y-101436787D01*
X132114229Y-101342021D01*
X132119698Y-101323911D01*
X132149909Y-101215527D01*
X132152114Y-101204393D01*
X132171496Y-101106524D01*
X132171497Y-101106519D01*
X132171564Y-101106179D01*
X132172215Y-101097283D01*
X132180006Y-100990678D01*
X132180037Y-100990254D01*
X132179344Y-100980740D01*
X132170732Y-100862555D01*
X132170731Y-100862550D01*
X132170701Y-100862135D01*
X132138927Y-100716204D01*
X132103964Y-100615569D01*
X132083742Y-100557366D01*
X132084264Y-100548426D01*
X132090411Y-100542678D01*
X132286876Y-100463301D01*
X132301561Y-100457368D01*
X132310516Y-100457446D01*
G37*
G04 #@! TD.AperFunction*
G04 #@! TA.AperFunction,Conductor*
G36*
X127516976Y-102394162D02*
G01*
X127523021Y-102400017D01*
X127593512Y-102552285D01*
X127593516Y-102552292D01*
X127593663Y-102552610D01*
X127672178Y-102679656D01*
X127754461Y-102778303D01*
X127841085Y-102855808D01*
X127841376Y-102856010D01*
X127841382Y-102856015D01*
X127932452Y-102919305D01*
X127932622Y-102919423D01*
X127932797Y-102919525D01*
X127932802Y-102919529D01*
X127967149Y-102939700D01*
X128029643Y-102976402D01*
X128029697Y-102976432D01*
X128132579Y-103033920D01*
X128132868Y-103034087D01*
X128147043Y-103042546D01*
X128242111Y-103099280D01*
X128242736Y-103099681D01*
X128358945Y-103179793D01*
X128359734Y-103180389D01*
X128456754Y-103260517D01*
X128477441Y-103277602D01*
X128481638Y-103285512D01*
X128480848Y-103290983D01*
X128115322Y-104201171D01*
X127220114Y-103800351D01*
X127213964Y-103793844D01*
X127213270Y-103788360D01*
X127230411Y-103636663D01*
X127230569Y-103635661D01*
X127258503Y-103497352D01*
X127258679Y-103496606D01*
X127287619Y-103389892D01*
X127291987Y-103373785D01*
X127292056Y-103373544D01*
X127319387Y-103283048D01*
X127326139Y-103260691D01*
X127326145Y-103260669D01*
X127326158Y-103260627D01*
X127348521Y-103180397D01*
X127356305Y-103152471D01*
X127356308Y-103152458D01*
X127356368Y-103152243D01*
X127378024Y-103042895D01*
X127386496Y-102926970D01*
X127381326Y-102856015D01*
X127377191Y-102799271D01*
X127377190Y-102799266D01*
X127377160Y-102798851D01*
X127345386Y-102652920D01*
X127290202Y-102494082D01*
X127290724Y-102485142D01*
X127296871Y-102479394D01*
X127493336Y-102400017D01*
X127508021Y-102394084D01*
X127516976Y-102394162D01*
G37*
G04 #@! TD.AperFunction*
G04 #@! TA.AperFunction,Conductor*
G36*
X131352646Y-98345698D02*
G01*
X131890875Y-98602009D01*
X131896871Y-98608660D01*
X131897456Y-98614011D01*
X131886618Y-98701475D01*
X131886513Y-98702160D01*
X131871128Y-98785501D01*
X131871038Y-98785938D01*
X131854313Y-98860486D01*
X131854277Y-98860537D01*
X131854300Y-98860542D01*
X131842298Y-98912842D01*
X131838447Y-98929622D01*
X131825785Y-98996222D01*
X131818564Y-99063619D01*
X131819034Y-99135094D01*
X131829446Y-99213924D01*
X131852050Y-99303389D01*
X131852144Y-99303651D01*
X131885306Y-99396184D01*
X131884871Y-99405128D01*
X131878676Y-99410978D01*
X131767833Y-99455762D01*
X131667737Y-99496203D01*
X131658782Y-99496125D01*
X131652685Y-99490156D01*
X131617054Y-99410979D01*
X131611459Y-99398546D01*
X131565090Y-99316921D01*
X131555067Y-99303125D01*
X131549076Y-99294880D01*
X131517556Y-99251497D01*
X131468216Y-99198225D01*
X131416432Y-99153062D01*
X131361563Y-99111960D01*
X131302971Y-99070872D01*
X131240204Y-99025888D01*
X131239827Y-99025606D01*
X131232863Y-99020155D01*
X131172331Y-98972771D01*
X131171796Y-98972325D01*
X131123579Y-98929533D01*
X131104773Y-98912842D01*
X131100860Y-98904787D01*
X131101787Y-98899477D01*
X131336864Y-98351647D01*
X131343276Y-98345396D01*
X131352646Y-98345698D01*
G37*
G04 #@! TD.AperFunction*
G04 #@! TA.AperFunction,Conductor*
G36*
X126537860Y-100269172D02*
G01*
X127081272Y-100514272D01*
X127087405Y-100520797D01*
X127088099Y-100526151D01*
X127079004Y-100613327D01*
X127078905Y-100614053D01*
X127064949Y-100697067D01*
X127064857Y-100697551D01*
X127049118Y-100771879D01*
X127033905Y-100840679D01*
X127021584Y-100906981D01*
X127021562Y-100907191D01*
X127021561Y-100907196D01*
X127017101Y-100949235D01*
X127014467Y-100974062D01*
X127014870Y-101045196D01*
X127025104Y-101123657D01*
X127025187Y-101123987D01*
X127035666Y-101165691D01*
X127047483Y-101212723D01*
X127047578Y-101212987D01*
X127047579Y-101212992D01*
X127080534Y-101305087D01*
X127080095Y-101314031D01*
X127073902Y-101319876D01*
X126862944Y-101405108D01*
X126853989Y-101405030D01*
X126847898Y-101399076D01*
X126807546Y-101309725D01*
X126807543Y-101309719D01*
X126807430Y-101309469D01*
X126761599Y-101229672D01*
X126735835Y-101194873D01*
X126714634Y-101166237D01*
X126714630Y-101166232D01*
X126714421Y-101165950D01*
X126665288Y-101114323D01*
X126613593Y-101070815D01*
X126558724Y-101031451D01*
X126558646Y-101031399D01*
X126558629Y-101031387D01*
X126500109Y-100992272D01*
X126500016Y-100992209D01*
X126437247Y-100949377D01*
X126436842Y-100949088D01*
X126404894Y-100925232D01*
X126369283Y-100898640D01*
X126368735Y-100898203D01*
X126301799Y-100841330D01*
X126297713Y-100833362D01*
X126298530Y-100828024D01*
X126351442Y-100697307D01*
X126522205Y-100275447D01*
X126528485Y-100269064D01*
X126537860Y-100269172D01*
G37*
G04 #@! TD.AperFunction*
G04 #@! TA.AperFunction,Conductor*
G36*
X145585539Y-105361159D02*
G01*
X146289850Y-106003310D01*
X146293655Y-106011416D01*
X146290298Y-106020171D01*
X145621117Y-106698843D01*
X145612868Y-106702328D01*
X145607495Y-106701063D01*
X145471801Y-106632259D01*
X145470922Y-106631765D01*
X145351698Y-106557769D01*
X145351055Y-106557340D01*
X145248355Y-106483776D01*
X145248138Y-106483615D01*
X145155091Y-106412636D01*
X145064947Y-106346527D01*
X145008620Y-106311209D01*
X144971186Y-106287737D01*
X144971182Y-106287735D01*
X144970900Y-106287558D01*
X144866027Y-106237904D01*
X144743406Y-106199742D01*
X144743015Y-106199677D01*
X144743011Y-106199676D01*
X144596438Y-106175303D01*
X144596437Y-106175303D01*
X144596113Y-106175249D01*
X144520459Y-106171592D01*
X144428359Y-106167139D01*
X144420261Y-106163317D01*
X144417224Y-106155453D01*
X144417224Y-105927738D01*
X144420651Y-105919465D01*
X144428347Y-105916052D01*
X144592931Y-105907934D01*
X144593283Y-105907874D01*
X144737011Y-105883363D01*
X144737014Y-105883362D01*
X144737426Y-105883292D01*
X144737815Y-105883167D01*
X144737823Y-105883165D01*
X144807547Y-105860752D01*
X144857452Y-105844710D01*
X144857835Y-105844521D01*
X144857840Y-105844519D01*
X144915744Y-105815944D01*
X144959757Y-105794225D01*
X145051088Y-105733874D01*
X145138188Y-105665694D01*
X145138268Y-105665628D01*
X145227695Y-105591814D01*
X145227912Y-105591639D01*
X145326407Y-105514212D01*
X145326983Y-105513787D01*
X145368732Y-105484916D01*
X145441193Y-105434807D01*
X145441999Y-105434299D01*
X145571826Y-105359662D01*
X145580705Y-105358509D01*
X145585539Y-105361159D01*
G37*
G04 #@! TD.AperFunction*
G04 #@! TA.AperFunction,Conductor*
G36*
X150588790Y-105646851D02*
G01*
X150589795Y-105647011D01*
X150725009Y-105674450D01*
X150725745Y-105674624D01*
X150831101Y-105703361D01*
X150845817Y-105707375D01*
X150846142Y-105707469D01*
X150956520Y-105741031D01*
X151009530Y-105755929D01*
X151062322Y-105770766D01*
X151062326Y-105770767D01*
X151062529Y-105770824D01*
X151062739Y-105770866D01*
X151062747Y-105770868D01*
X151119951Y-105782327D01*
X151169488Y-105792250D01*
X151169852Y-105792277D01*
X151169857Y-105792278D01*
X151282454Y-105800729D01*
X151282458Y-105800729D01*
X151282884Y-105800761D01*
X151408209Y-105791816D01*
X151550951Y-105760864D01*
X151551278Y-105760751D01*
X151551287Y-105760748D01*
X151704766Y-105707469D01*
X151706085Y-105707011D01*
X151715025Y-105707535D01*
X151720769Y-105713680D01*
X151763425Y-105819259D01*
X151806080Y-105924837D01*
X151806002Y-105933792D01*
X151800150Y-105939836D01*
X151651147Y-106008862D01*
X151575280Y-106055839D01*
X151527319Y-106085535D01*
X151527315Y-106085538D01*
X151526966Y-106085754D01*
X151526653Y-106086016D01*
X151430928Y-106166101D01*
X151430924Y-106166105D01*
X151430600Y-106166376D01*
X151354942Y-106251271D01*
X151292886Y-106340982D01*
X151237325Y-106436054D01*
X151189274Y-106522428D01*
X151181242Y-106536865D01*
X151181074Y-106537158D01*
X151117456Y-106644119D01*
X151117039Y-106644770D01*
X151038829Y-106758441D01*
X151038213Y-106759257D01*
X150943338Y-106874207D01*
X150935429Y-106878406D01*
X150929955Y-106877616D01*
X150045520Y-106522428D01*
X150039120Y-106516165D01*
X150039202Y-106506790D01*
X150428684Y-105636913D01*
X150435192Y-105630762D01*
X150440679Y-105630068D01*
X150588790Y-105646851D01*
G37*
G04 #@! TD.AperFunction*
G04 #@! TA.AperFunction,Conductor*
G36*
X147979608Y-106626476D02*
G01*
X148863957Y-106981618D01*
X148870357Y-106987881D01*
X148870276Y-106997256D01*
X148480744Y-107867271D01*
X148474235Y-107873422D01*
X148468938Y-107874136D01*
X148309668Y-107858721D01*
X148308938Y-107858627D01*
X148167242Y-107835864D01*
X148166559Y-107835733D01*
X148043325Y-107808336D01*
X148042824Y-107808213D01*
X147930893Y-107778092D01*
X147930704Y-107778040D01*
X147822955Y-107747103D01*
X147822904Y-107747089D01*
X147712737Y-107717415D01*
X147712730Y-107717413D01*
X147712599Y-107717378D01*
X147619794Y-107696848D01*
X147592838Y-107690884D01*
X147592833Y-107690883D01*
X147592661Y-107690845D01*
X147592483Y-107690817D01*
X147592477Y-107690816D01*
X147555237Y-107684985D01*
X147456106Y-107669463D01*
X147295896Y-107655196D01*
X147295745Y-107655192D01*
X147295730Y-107655191D01*
X147116376Y-107650315D01*
X147108199Y-107646664D01*
X147104994Y-107638619D01*
X147104993Y-107410877D01*
X147108420Y-107402604D01*
X147115835Y-107399209D01*
X147260835Y-107388545D01*
X147260839Y-107388544D01*
X147261374Y-107388505D01*
X147303802Y-107377285D01*
X147384920Y-107355834D01*
X147384923Y-107355833D01*
X147385565Y-107355663D01*
X147437100Y-107328551D01*
X147483235Y-107304280D01*
X147483238Y-107304278D01*
X147483829Y-107303967D01*
X147562424Y-107235908D01*
X147627612Y-107153972D01*
X147627793Y-107153681D01*
X147685580Y-107060769D01*
X147685592Y-107060749D01*
X147685654Y-107060649D01*
X147742812Y-106958426D01*
X147805171Y-106850096D01*
X147805535Y-106849505D01*
X147879203Y-106737711D01*
X147879871Y-106736797D01*
X147966146Y-106629981D01*
X147974010Y-106625699D01*
X147979608Y-106626476D01*
G37*
G04 #@! TD.AperFunction*
G04 #@! TA.AperFunction,Conductor*
G36*
X131361194Y-106751082D02*
G01*
X131362177Y-106751235D01*
X131500921Y-106779126D01*
X131501649Y-106779297D01*
X131624825Y-106812505D01*
X131625090Y-106812580D01*
X131738315Y-106846537D01*
X131847017Y-106876576D01*
X131847222Y-106876616D01*
X131847230Y-106876618D01*
X131904136Y-106887753D01*
X131956682Y-106898036D01*
X131957024Y-106898060D01*
X131957029Y-106898061D01*
X131976619Y-106899453D01*
X131989564Y-106900373D01*
X132072945Y-106906298D01*
X132201433Y-106896741D01*
X132347778Y-106864747D01*
X132517610Y-106805696D01*
X132611262Y-107037491D01*
X132448075Y-107112988D01*
X132320578Y-107191633D01*
X132221513Y-107274014D01*
X132165650Y-107336197D01*
X132143620Y-107360720D01*
X132143424Y-107361001D01*
X132143419Y-107361007D01*
X132079758Y-107452168D01*
X132079750Y-107452180D01*
X132079640Y-107452338D01*
X132079532Y-107452521D01*
X132022314Y-107549457D01*
X131964459Y-107652530D01*
X131964294Y-107652814D01*
X131898780Y-107762227D01*
X131898369Y-107762865D01*
X131817955Y-107879284D01*
X131817347Y-107880088D01*
X131719813Y-107998114D01*
X131711901Y-108002308D01*
X131706434Y-108001518D01*
X130807533Y-107640525D01*
X130801133Y-107634262D01*
X130801215Y-107624887D01*
X131197063Y-106740782D01*
X131203571Y-106734631D01*
X131209050Y-106733937D01*
X131361194Y-106751082D01*
G37*
G04 #@! TD.AperFunction*
G04 #@! TA.AperFunction,Conductor*
G36*
X128547263Y-103349712D02*
G01*
X128551632Y-103353099D01*
X128646779Y-103472488D01*
X128647376Y-103473309D01*
X128725416Y-103590852D01*
X128725819Y-103591503D01*
X128787969Y-103699900D01*
X128789097Y-103701868D01*
X128789251Y-103702146D01*
X128844971Y-103806084D01*
X128900248Y-103904086D01*
X128962255Y-103996718D01*
X129038236Y-104084681D01*
X129135432Y-104168673D01*
X129135773Y-104168892D01*
X129135777Y-104168895D01*
X129260801Y-104249210D01*
X129260805Y-104249212D01*
X129261088Y-104249394D01*
X129261396Y-104249543D01*
X129412426Y-104322689D01*
X129418378Y-104329379D01*
X129418096Y-104337790D01*
X129359325Y-104476244D01*
X129329113Y-104547419D01*
X129322726Y-104553695D01*
X129314311Y-104553830D01*
X129156460Y-104495881D01*
X129156113Y-104495799D01*
X129011511Y-104461661D01*
X129011506Y-104461660D01*
X129011107Y-104461566D01*
X129010696Y-104461529D01*
X129010691Y-104461528D01*
X128954247Y-104456423D01*
X128883170Y-104449994D01*
X128811691Y-104453966D01*
X128767470Y-104456423D01*
X128767466Y-104456424D01*
X128767115Y-104456443D01*
X128657407Y-104476187D01*
X128657192Y-104476243D01*
X128657187Y-104476244D01*
X128548591Y-104504480D01*
X128548512Y-104504501D01*
X128435030Y-104536625D01*
X128434749Y-104536700D01*
X128366918Y-104553830D01*
X128311393Y-104567852D01*
X128310644Y-104568015D01*
X128171864Y-104593532D01*
X128170859Y-104593672D01*
X128018894Y-104608164D01*
X128010333Y-104605538D01*
X128007023Y-104601111D01*
X127771183Y-104048730D01*
X127771182Y-104048729D01*
X127621885Y-103699048D01*
X128442721Y-103385924D01*
X128444784Y-103385137D01*
X128444785Y-103385137D01*
X128538312Y-103349459D01*
X128547263Y-103349712D01*
G37*
G04 #@! TD.AperFunction*
G04 #@! TA.AperFunction,Conductor*
G36*
X132446938Y-106235802D02*
G01*
X133357124Y-106601330D01*
X132986049Y-107430100D01*
X132973492Y-107458146D01*
X132956304Y-107496535D01*
X132949796Y-107502686D01*
X132944313Y-107503380D01*
X132902962Y-107498707D01*
X132792615Y-107486238D01*
X132791613Y-107486080D01*
X132705909Y-107468770D01*
X132653298Y-107458144D01*
X132652566Y-107457972D01*
X132529737Y-107424663D01*
X132529497Y-107424594D01*
X132416581Y-107390491D01*
X132336347Y-107368127D01*
X132308427Y-107360344D01*
X132308424Y-107360343D01*
X132308197Y-107360280D01*
X132305223Y-107359691D01*
X132199194Y-107338692D01*
X132199189Y-107338691D01*
X132198849Y-107338624D01*
X132198508Y-107338599D01*
X132198500Y-107338598D01*
X132180180Y-107337259D01*
X132165650Y-107336197D01*
X132082925Y-107330151D01*
X131954805Y-107339487D01*
X131808875Y-107371261D01*
X131639520Y-107430100D01*
X131545868Y-107198305D01*
X131708564Y-107122985D01*
X131835610Y-107044469D01*
X131934258Y-106962187D01*
X131989563Y-106900373D01*
X131989564Y-106900373D01*
X132011761Y-106875563D01*
X132075376Y-106784027D01*
X132132356Y-106687006D01*
X132174350Y-106611851D01*
X132189873Y-106584070D01*
X132190040Y-106583781D01*
X132255226Y-106474547D01*
X132255640Y-106473902D01*
X132335740Y-106357712D01*
X132336340Y-106356918D01*
X132433557Y-106239208D01*
X132441467Y-106235012D01*
X132446938Y-106235802D01*
G37*
G04 #@! TD.AperFunction*
G04 #@! TA.AperFunction,Conductor*
G36*
X128475585Y-105416581D02*
G01*
X128477127Y-105419389D01*
X128766598Y-106178247D01*
X128821111Y-106321155D01*
X128820857Y-106330106D01*
X128817225Y-106334665D01*
X128713605Y-106412830D01*
X128712524Y-106413554D01*
X128595685Y-106482663D01*
X128595039Y-106483019D01*
X128476862Y-106543211D01*
X128476731Y-106543276D01*
X128379637Y-106591209D01*
X128363328Y-106599260D01*
X128260608Y-106655912D01*
X128174469Y-106718123D01*
X128110701Y-106790836D01*
X128075091Y-106878992D01*
X128075075Y-106880068D01*
X128075074Y-106880071D01*
X128073442Y-106986683D01*
X128073429Y-106987538D01*
X128073663Y-106988360D01*
X128108628Y-107111304D01*
X128107595Y-107120199D01*
X128101757Y-107125353D01*
X127890921Y-107210536D01*
X127881966Y-107210458D01*
X127875551Y-107203709D01*
X127823078Y-107060329D01*
X127822811Y-107059509D01*
X127784939Y-106926361D01*
X127784727Y-106925490D01*
X127760991Y-106808705D01*
X127760860Y-106807924D01*
X127746782Y-106702543D01*
X127746726Y-106702038D01*
X127737869Y-106603142D01*
X127737862Y-106603067D01*
X127729788Y-106505909D01*
X127729787Y-106505899D01*
X127729782Y-106505839D01*
X127718044Y-106405820D01*
X127704911Y-106334665D01*
X127698227Y-106298449D01*
X127698224Y-106298437D01*
X127698184Y-106298219D01*
X127665736Y-106178247D01*
X127619184Y-106049284D01*
X127619598Y-106040340D01*
X127623207Y-106035925D01*
X128459215Y-105414175D01*
X128467898Y-105411987D01*
X128475585Y-105416581D01*
G37*
G04 #@! TD.AperFunction*
G04 #@! TA.AperFunction,Conductor*
G36*
X150237132Y-101361135D02*
G01*
X150240444Y-101365564D01*
X150352745Y-101628593D01*
X150614685Y-102242107D01*
X150614782Y-102251060D01*
X150608095Y-102257632D01*
X149717594Y-102597329D01*
X149708643Y-102597076D01*
X149704272Y-102593686D01*
X149611415Y-102477096D01*
X149610814Y-102476270D01*
X149534605Y-102361257D01*
X149534199Y-102360599D01*
X149472456Y-102252542D01*
X149472293Y-102252246D01*
X149418020Y-102150548D01*
X149417978Y-102150469D01*
X149364083Y-102054443D01*
X149303602Y-101963662D01*
X149229437Y-101877459D01*
X149134493Y-101795168D01*
X149134148Y-101794946D01*
X149134144Y-101794943D01*
X149011977Y-101716317D01*
X149011973Y-101716315D01*
X149011672Y-101716121D01*
X149011358Y-101715969D01*
X149011353Y-101715966D01*
X148863897Y-101644504D01*
X148857947Y-101637812D01*
X148858230Y-101629405D01*
X148947215Y-101419768D01*
X148953602Y-101413492D01*
X148962013Y-101413356D01*
X149116183Y-101469908D01*
X149116536Y-101469991D01*
X149257950Y-101503249D01*
X149257952Y-101503249D01*
X149258363Y-101503346D01*
X149329603Y-101509683D01*
X149383082Y-101514441D01*
X149383087Y-101514441D01*
X149383513Y-101514479D01*
X149451754Y-101510553D01*
X149496679Y-101507968D01*
X149496682Y-101507968D01*
X149497041Y-101507947D01*
X149497400Y-101507882D01*
X149497405Y-101507881D01*
X149604116Y-101488436D01*
X149604123Y-101488435D01*
X149604356Y-101488392D01*
X149674507Y-101469991D01*
X149710820Y-101460466D01*
X149710838Y-101460461D01*
X149710869Y-101460453D01*
X149710905Y-101460443D01*
X149821831Y-101428819D01*
X149822158Y-101428731D01*
X149857431Y-101419768D01*
X149942765Y-101398084D01*
X149943504Y-101397923D01*
X150010660Y-101385511D01*
X150079180Y-101372847D01*
X150080192Y-101372705D01*
X150228570Y-101358511D01*
X150237132Y-101361135D01*
G37*
G04 #@! TD.AperFunction*
G04 #@! TA.AperFunction,Conductor*
G36*
X131282832Y-97424268D02*
G01*
X131292165Y-97424723D01*
X131803213Y-97468942D01*
X131812468Y-97470095D01*
X132133884Y-97522520D01*
X132318768Y-97552676D01*
X132327927Y-97554527D01*
X132577236Y-97614761D01*
X132826556Y-97674997D01*
X132835528Y-97677526D01*
X133043377Y-97744664D01*
X133323676Y-97835205D01*
X133332453Y-97838410D01*
X133807329Y-98032396D01*
X133815840Y-98036253D01*
X134274756Y-98265446D01*
X134282953Y-98269933D01*
X134723321Y-98533042D01*
X134731156Y-98538134D01*
X134794571Y-98582829D01*
X135147136Y-98831315D01*
X135150440Y-98833644D01*
X135157867Y-98839309D01*
X135436611Y-99069044D01*
X135553725Y-99165567D01*
X135560707Y-99171778D01*
X135821853Y-99422324D01*
X135930861Y-99526908D01*
X135937355Y-99533626D01*
X136279723Y-99915631D01*
X136285693Y-99922820D01*
X136579216Y-100304667D01*
X136583261Y-100311676D01*
X136583359Y-100311607D01*
X136590540Y-100321753D01*
X136591656Y-100325009D01*
X136592901Y-100326576D01*
X136596757Y-100335913D01*
X136601091Y-100339796D01*
X136603606Y-100345041D01*
X136632297Y-100368011D01*
X136637528Y-100372443D01*
X136664887Y-100396956D01*
X136670473Y-100398575D01*
X136675015Y-100402211D01*
X136684851Y-100404478D01*
X136684852Y-100404479D01*
X136710813Y-100410463D01*
X136717454Y-100412189D01*
X136752747Y-100422416D01*
X136766516Y-100420102D01*
X136766517Y-100420102D01*
X136771097Y-100419332D01*
X136791712Y-100417618D01*
X141922147Y-100420354D01*
X141930508Y-100420641D01*
X141936259Y-100421033D01*
X141949628Y-100425056D01*
X141976929Y-100420755D01*
X141979684Y-100420384D01*
X141986104Y-100420388D01*
X141997428Y-100417811D01*
X142005618Y-100416236D01*
X142017262Y-100414402D01*
X142023224Y-100412005D01*
X142025864Y-100411341D01*
X142039077Y-100408335D01*
X142039079Y-100408334D01*
X142052694Y-100405236D01*
X142063620Y-100396540D01*
X142069818Y-100393561D01*
X142077265Y-100390279D01*
X143808746Y-99694155D01*
X144228477Y-99525407D01*
X144298021Y-99518664D01*
X144360170Y-99550589D01*
X144395194Y-99611047D01*
X144391971Y-99680842D01*
X144361645Y-99728900D01*
X144341284Y-99748909D01*
X144299058Y-99810927D01*
X144289695Y-99832986D01*
X144274416Y-99906438D01*
X144274207Y-99930394D01*
X144284661Y-99985458D01*
X144288078Y-99997088D01*
X144474147Y-100457623D01*
X144483850Y-100469881D01*
X144485563Y-100470468D01*
X144493185Y-100469162D01*
X146687524Y-99582591D01*
X146757056Y-99575729D01*
X146819260Y-99607548D01*
X146848946Y-99651111D01*
X146946344Y-99892179D01*
X146953206Y-99961711D01*
X146921387Y-100023915D01*
X146877824Y-100053601D01*
X144687659Y-100938486D01*
X144675401Y-100948189D01*
X144674814Y-100949902D01*
X144676120Y-100957524D01*
X144834708Y-101350043D01*
X144841570Y-101419575D01*
X144809751Y-101481779D01*
X144749353Y-101516905D01*
X144719737Y-101520494D01*
X137411325Y-101520494D01*
X137344286Y-101500809D01*
X137323644Y-101484175D01*
X136226933Y-100387465D01*
X136222482Y-100382776D01*
X136191935Y-100348851D01*
X136165537Y-100334815D01*
X136152626Y-100326903D01*
X136137022Y-100315976D01*
X136137016Y-100315973D01*
X136128130Y-100309751D01*
X136117650Y-100306943D01*
X136109795Y-100303280D01*
X136108407Y-100302733D01*
X136100159Y-100300053D01*
X136090582Y-100294961D01*
X136079839Y-100293451D01*
X136079838Y-100293451D01*
X136060980Y-100290801D01*
X136046142Y-100287782D01*
X136032565Y-100284144D01*
X136017253Y-100280041D01*
X136006442Y-100280987D01*
X135997827Y-100280233D01*
X135996303Y-100280193D01*
X135987655Y-100280495D01*
X135976911Y-100278985D01*
X135947658Y-100285203D01*
X135932700Y-100287438D01*
X135902901Y-100290046D01*
X135861514Y-100309345D01*
X135855622Y-100311907D01*
X134159817Y-100997058D01*
X134088287Y-101025958D01*
X134064458Y-101032322D01*
X134064484Y-101032429D01*
X134060186Y-101033464D01*
X134058901Y-101033807D01*
X134058774Y-101033824D01*
X134058567Y-101033853D01*
X134058565Y-101033853D01*
X134052529Y-101034692D01*
X133917883Y-101081471D01*
X133912391Y-101083379D01*
X133898079Y-101087407D01*
X133854210Y-101096959D01*
X133794318Y-101109999D01*
X133776951Y-101112510D01*
X133696130Y-101118400D01*
X133678079Y-101118398D01*
X133646989Y-101116126D01*
X133606299Y-101113152D01*
X133591263Y-101111121D01*
X133514068Y-101095833D01*
X133504866Y-101093642D01*
X133423760Y-101071034D01*
X133412017Y-101067760D01*
X133409481Y-101067024D01*
X133300174Y-101034012D01*
X133299923Y-101033937D01*
X133299920Y-101033936D01*
X133299916Y-101033935D01*
X133297073Y-101033099D01*
X133296962Y-101033067D01*
X133296878Y-101033043D01*
X133296832Y-101033030D01*
X133296752Y-101033008D01*
X133296675Y-101032986D01*
X133294387Y-101032348D01*
X133294376Y-101032345D01*
X133294057Y-101032256D01*
X133293729Y-101032167D01*
X133293627Y-101032139D01*
X133196573Y-101005819D01*
X133171660Y-100999063D01*
X133140573Y-100985867D01*
X133061178Y-100938486D01*
X133031923Y-100921027D01*
X133031856Y-100920987D01*
X133031718Y-100920905D01*
X133029225Y-100919441D01*
X133028936Y-100919274D01*
X133026359Y-100917809D01*
X132926492Y-100862007D01*
X132924262Y-100860728D01*
X132848519Y-100816247D01*
X132841076Y-100811876D01*
X132833109Y-100806779D01*
X132783048Y-100771988D01*
X132768505Y-100761881D01*
X132756589Y-100752468D01*
X132702948Y-100704473D01*
X132690409Y-100691491D01*
X132648976Y-100641819D01*
X132638495Y-100629253D01*
X132628237Y-100615016D01*
X132572421Y-100524699D01*
X132565376Y-100511605D01*
X132532642Y-100440897D01*
X132503047Y-100376969D01*
X132498206Y-100370151D01*
X132484340Y-100344812D01*
X132361798Y-100041511D01*
X133061048Y-100041511D01*
X133061845Y-100043138D01*
X133068158Y-100047603D01*
X133091601Y-100057554D01*
X133097900Y-100059834D01*
X133144646Y-100073948D01*
X133159856Y-100076527D01*
X133282781Y-100081786D01*
X133300181Y-100080050D01*
X133418615Y-100050849D01*
X133434822Y-100044301D01*
X133540297Y-99983037D01*
X133554025Y-99972196D01*
X133638796Y-99883022D01*
X133647943Y-99870604D01*
X133671761Y-99827986D01*
X133674718Y-99821950D01*
X133678022Y-99814168D01*
X133679829Y-99798641D01*
X133679033Y-99797016D01*
X133672717Y-99792548D01*
X133256332Y-99615803D01*
X133240807Y-99613997D01*
X133239180Y-99614794D01*
X133234715Y-99621106D01*
X133062854Y-100025986D01*
X133061048Y-100041511D01*
X132361798Y-100041511D01*
X132327247Y-99955994D01*
X132320385Y-99886462D01*
X132352204Y-99824258D01*
X132412602Y-99789132D01*
X132482402Y-99792235D01*
X132502713Y-99801301D01*
X132546542Y-99825797D01*
X132552571Y-99828750D01*
X132571860Y-99836939D01*
X132587388Y-99838745D01*
X132589014Y-99837949D01*
X132593481Y-99831634D01*
X132765342Y-99426755D01*
X132767148Y-99411230D01*
X132766351Y-99409603D01*
X132760039Y-99405138D01*
X132343652Y-99228393D01*
X132328127Y-99226587D01*
X132326501Y-99227384D01*
X132322034Y-99233698D01*
X132316968Y-99245634D01*
X132314692Y-99251920D01*
X132303168Y-99290089D01*
X132264947Y-99348578D01*
X132201172Y-99377118D01*
X132132091Y-99366648D01*
X132079637Y-99320492D01*
X132067730Y-99296082D01*
X132066268Y-99292001D01*
X132052250Y-99252888D01*
X132050879Y-99249061D01*
X132047387Y-99237604D01*
X132033378Y-99182160D01*
X132030668Y-99168020D01*
X132027012Y-99140338D01*
X133443574Y-99140338D01*
X133444371Y-99141965D01*
X133450683Y-99146430D01*
X133867070Y-99323175D01*
X133882595Y-99324981D01*
X133884221Y-99324184D01*
X133888688Y-99317870D01*
X133893754Y-99305934D01*
X133896030Y-99299648D01*
X133910148Y-99252888D01*
X133912727Y-99237677D01*
X133917986Y-99114756D01*
X133916249Y-99097355D01*
X133887051Y-98978925D01*
X133880498Y-98962708D01*
X133819235Y-98857235D01*
X133808398Y-98843513D01*
X133719223Y-98758741D01*
X133706804Y-98749593D01*
X133664180Y-98725771D01*
X133658151Y-98722818D01*
X133638862Y-98714629D01*
X133623334Y-98712823D01*
X133621708Y-98713619D01*
X133617241Y-98719934D01*
X133445380Y-99124813D01*
X133443574Y-99140338D01*
X132027012Y-99140338D01*
X132025460Y-99128587D01*
X132024395Y-99113167D01*
X132024183Y-99080955D01*
X132024886Y-99066928D01*
X132025096Y-99064976D01*
X132028692Y-99031409D01*
X132030168Y-99021461D01*
X132039173Y-98974094D01*
X132040133Y-98969518D01*
X132054593Y-98906508D01*
X132054842Y-98906565D01*
X132055098Y-98905532D01*
X132054829Y-98905472D01*
X132067371Y-98849568D01*
X132071554Y-98830924D01*
X132072314Y-98827391D01*
X132072404Y-98826954D01*
X132072454Y-98826700D01*
X132073165Y-98823056D01*
X132073184Y-98822954D01*
X132073213Y-98822807D01*
X132073487Y-98821326D01*
X132079026Y-98791317D01*
X132086823Y-98765378D01*
X132092108Y-98752927D01*
X132530893Y-98752927D01*
X132531689Y-98754552D01*
X132538005Y-98759020D01*
X132954390Y-98935765D01*
X132969915Y-98937571D01*
X132971542Y-98936774D01*
X132976007Y-98930462D01*
X133147868Y-98525582D01*
X133149674Y-98510057D01*
X133148877Y-98508430D01*
X133142564Y-98503965D01*
X133119121Y-98494014D01*
X133112822Y-98491734D01*
X133066076Y-98477620D01*
X133050866Y-98475041D01*
X132927941Y-98469782D01*
X132910541Y-98471518D01*
X132792107Y-98500719D01*
X132775900Y-98507267D01*
X132670425Y-98568531D01*
X132656697Y-98579372D01*
X132571926Y-98668546D01*
X132562779Y-98680964D01*
X132538961Y-98723582D01*
X132536004Y-98729618D01*
X132532700Y-98737400D01*
X132530893Y-98752927D01*
X132092108Y-98752927D01*
X132170853Y-98567414D01*
X132171992Y-98564731D01*
X132175802Y-98552723D01*
X132179022Y-98542571D01*
X132181307Y-98535368D01*
X132186630Y-98451931D01*
X132189102Y-98413181D01*
X132189102Y-98413179D01*
X132189692Y-98403928D01*
X132159057Y-98275832D01*
X132092111Y-98162407D01*
X132075384Y-98147160D01*
X132000363Y-98078776D01*
X132000361Y-98078775D01*
X131994773Y-98073681D01*
X131988126Y-98070087D01*
X131988122Y-98070084D01*
X131978138Y-98064686D01*
X131967677Y-98059030D01*
X131411079Y-97822769D01*
X131408311Y-97821891D01*
X131408306Y-97821889D01*
X131388921Y-97815739D01*
X131388918Y-97815738D01*
X131381717Y-97813454D01*
X131250276Y-97805070D01*
X131205664Y-97815739D01*
X131131198Y-97833547D01*
X131131196Y-97833548D01*
X131122180Y-97835704D01*
X131008756Y-97902650D01*
X130920030Y-97999988D01*
X130905378Y-98027084D01*
X130904244Y-98029756D01*
X130904239Y-98029766D01*
X130802295Y-98269933D01*
X130678886Y-98560669D01*
X130669571Y-98590032D01*
X130661186Y-98721472D01*
X130691821Y-98849568D01*
X130758767Y-98962993D01*
X130765619Y-98969239D01*
X130765620Y-98969240D01*
X130833824Y-99031409D01*
X130856105Y-99051719D01*
X130862752Y-99055313D01*
X130862756Y-99055316D01*
X130872740Y-99060714D01*
X130883201Y-99066370D01*
X131032654Y-99129809D01*
X131060633Y-99146308D01*
X131113158Y-99187424D01*
X131113425Y-99187628D01*
X131116479Y-99189966D01*
X131116523Y-99189999D01*
X131116737Y-99190163D01*
X131117114Y-99190445D01*
X131120495Y-99192921D01*
X131120754Y-99193107D01*
X131120811Y-99193148D01*
X131182956Y-99237686D01*
X131183262Y-99237905D01*
X131184983Y-99239125D01*
X131185043Y-99239167D01*
X131185115Y-99239218D01*
X131239328Y-99277235D01*
X131242476Y-99279517D01*
X131283432Y-99310197D01*
X131290591Y-99315988D01*
X131319909Y-99341557D01*
X131329381Y-99350749D01*
X131353480Y-99376769D01*
X131362821Y-99388140D01*
X131388008Y-99422808D01*
X131395506Y-99434442D01*
X131425144Y-99486613D01*
X131430405Y-99496977D01*
X131462908Y-99569205D01*
X131462911Y-99569210D01*
X131465286Y-99574488D01*
X131468604Y-99579241D01*
X131470775Y-99582351D01*
X131484070Y-99606878D01*
X131856366Y-100528341D01*
X131880888Y-100589036D01*
X131887255Y-100612875D01*
X131887360Y-100612850D01*
X131888383Y-100617099D01*
X131888738Y-100618429D01*
X131889624Y-100624808D01*
X131938320Y-100764967D01*
X131942339Y-100779247D01*
X131964934Y-100883018D01*
X131967442Y-100900376D01*
X131973332Y-100981212D01*
X131973330Y-100999261D01*
X131968085Y-101071034D01*
X131966054Y-101086079D01*
X131950810Y-101163056D01*
X131950769Y-101163263D01*
X131948581Y-101172456D01*
X131928759Y-101243567D01*
X131922690Y-101265338D01*
X131921949Y-101267891D01*
X131920762Y-101271821D01*
X131888885Y-101377375D01*
X131888062Y-101380169D01*
X131887970Y-101380490D01*
X131887181Y-101383322D01*
X131853884Y-101506104D01*
X131852211Y-101512703D01*
X131852035Y-101513449D01*
X131850611Y-101519953D01*
X131822677Y-101658261D01*
X131822558Y-101658921D01*
X131822558Y-101658923D01*
X131822117Y-101661379D01*
X131821118Y-101666935D01*
X131820960Y-101667937D01*
X131819752Y-101676871D01*
X131819680Y-101677506D01*
X131819676Y-101677540D01*
X131812905Y-101737460D01*
X131802610Y-101828568D01*
X131802635Y-101832274D01*
X131802798Y-101856720D01*
X131802028Y-101871371D01*
X131799075Y-101897695D01*
X131814870Y-102085789D01*
X131866898Y-102267233D01*
X131869670Y-102272628D01*
X131869671Y-102272629D01*
X131888376Y-102309025D01*
X131953178Y-102435116D01*
X131956946Y-102439870D01*
X132053367Y-102561523D01*
X132070423Y-102583043D01*
X132075042Y-102586974D01*
X132209554Y-102701453D01*
X132209559Y-102701457D01*
X132214168Y-102705379D01*
X132378938Y-102797466D01*
X132384710Y-102799341D01*
X132384709Y-102799341D01*
X132540503Y-102849961D01*
X132558455Y-102855794D01*
X132745883Y-102878144D01*
X132751927Y-102877679D01*
X132751928Y-102877679D01*
X132836976Y-102871135D01*
X132884540Y-102867475D01*
X132952892Y-102881959D01*
X133002563Y-102931097D01*
X133017783Y-102999289D01*
X133002715Y-103050847D01*
X132953465Y-103140432D01*
X132953462Y-103140440D01*
X132950544Y-103145747D01*
X132948712Y-103151521D01*
X132948712Y-103151522D01*
X132942494Y-103171124D01*
X132893470Y-103325668D01*
X132888652Y-103368618D01*
X132875117Y-103489288D01*
X132872429Y-103513247D01*
X132888224Y-103701341D01*
X132940252Y-103882785D01*
X132943024Y-103888180D01*
X132943025Y-103888181D01*
X132958163Y-103917636D01*
X133026532Y-104050668D01*
X133030300Y-104055422D01*
X133133385Y-104185483D01*
X133143777Y-104198595D01*
X133148396Y-104202526D01*
X133282908Y-104317005D01*
X133282913Y-104317009D01*
X133287522Y-104320931D01*
X133452292Y-104413018D01*
X133527040Y-104437305D01*
X133599601Y-104460881D01*
X133631809Y-104471346D01*
X133819237Y-104493696D01*
X133825281Y-104493231D01*
X133825282Y-104493231D01*
X133880746Y-104488963D01*
X134007437Y-104479215D01*
X134189240Y-104428454D01*
X134319751Y-104362529D01*
X134352309Y-104346083D01*
X134352311Y-104346082D01*
X134357721Y-104343349D01*
X134506462Y-104227139D01*
X134594253Y-104125432D01*
X134625834Y-104088846D01*
X134625836Y-104088843D01*
X134629799Y-104084252D01*
X134634693Y-104075638D01*
X134670712Y-104012233D01*
X134723034Y-103920129D01*
X134782615Y-103741023D01*
X134783852Y-103731238D01*
X134805837Y-103557200D01*
X134805837Y-103557199D01*
X134806272Y-103553756D01*
X134806649Y-103526751D01*
X134799247Y-103451262D01*
X134788822Y-103344932D01*
X134788822Y-103344930D01*
X134788230Y-103338896D01*
X134786478Y-103333093D01*
X134735426Y-103164002D01*
X134733673Y-103158196D01*
X134712441Y-103118264D01*
X135196960Y-103118264D01*
X135198266Y-103125886D01*
X135412418Y-103655929D01*
X135415619Y-103662656D01*
X135453632Y-103731517D01*
X135462973Y-103744256D01*
X135555567Y-103841490D01*
X135568662Y-103851944D01*
X135683581Y-103920447D01*
X135698989Y-103926988D01*
X135828101Y-103962068D01*
X135844706Y-103964225D01*
X135978980Y-103963288D01*
X135994633Y-103961157D01*
X136070557Y-103940670D01*
X136077644Y-103938292D01*
X136139912Y-103913135D01*
X136152170Y-103903433D01*
X136152756Y-103901720D01*
X136151450Y-103894097D01*
X135752553Y-102906794D01*
X135742850Y-102894536D01*
X135741137Y-102893949D01*
X135733515Y-102895255D01*
X135209805Y-103106848D01*
X135197547Y-103116551D01*
X135196960Y-103118264D01*
X134712441Y-103118264D01*
X134681351Y-103059792D01*
X134647905Y-102996888D01*
X134647904Y-102996886D01*
X134645058Y-102991534D01*
X134638804Y-102983865D01*
X134529593Y-102849961D01*
X134529592Y-102849960D01*
X134525758Y-102845259D01*
X134486645Y-102812902D01*
X134384994Y-102728809D01*
X134384991Y-102728807D01*
X134380319Y-102724942D01*
X134374346Y-102721712D01*
X134342881Y-102704699D01*
X136220571Y-102704699D01*
X136221877Y-102712321D01*
X136620774Y-103699623D01*
X136630477Y-103711881D01*
X136632190Y-103712468D01*
X136639812Y-103711162D01*
X136706262Y-103684314D01*
X136712989Y-103681113D01*
X136781850Y-103643100D01*
X136794589Y-103633759D01*
X136891824Y-103541164D01*
X136902278Y-103528068D01*
X136970778Y-103413157D01*
X136977323Y-103397738D01*
X137012401Y-103268631D01*
X137014558Y-103252025D01*
X137013621Y-103117754D01*
X137011490Y-103102097D01*
X136991001Y-103026166D01*
X136988630Y-103019100D01*
X136776164Y-102493228D01*
X136766461Y-102480970D01*
X136764748Y-102480383D01*
X136757126Y-102481689D01*
X136233416Y-102693283D01*
X136221158Y-102702986D01*
X136220571Y-102704699D01*
X134342881Y-102704699D01*
X134219623Y-102638054D01*
X134214280Y-102635165D01*
X134184628Y-102625986D01*
X134039766Y-102581143D01*
X134039762Y-102581142D01*
X134033966Y-102579348D01*
X133846244Y-102559618D01*
X133840211Y-102560167D01*
X133840207Y-102560167D01*
X133743742Y-102568946D01*
X133675194Y-102555418D01*
X133624842Y-102506978D01*
X133608672Y-102439005D01*
X133630411Y-102375079D01*
X133683560Y-102297982D01*
X133687257Y-102292428D01*
X133687665Y-102291793D01*
X133687919Y-102291383D01*
X133690992Y-102286422D01*
X133691005Y-102286401D01*
X133691242Y-102286018D01*
X133693924Y-102281525D01*
X133731214Y-102219036D01*
X133756429Y-102176784D01*
X133757892Y-102174292D01*
X133758059Y-102174003D01*
X133759524Y-102171427D01*
X133762565Y-102165986D01*
X133815287Y-102071632D01*
X133816610Y-102069322D01*
X133818205Y-102066607D01*
X133865462Y-101986140D01*
X133870561Y-101978170D01*
X133915455Y-101913571D01*
X133924870Y-101901654D01*
X133972864Y-101848013D01*
X133985848Y-101835472D01*
X133989905Y-101832088D01*
X134048076Y-101783568D01*
X134062305Y-101773314D01*
X134152637Y-101717487D01*
X134165729Y-101710445D01*
X134295185Y-101650514D01*
X134295198Y-101650506D01*
X134300368Y-101648113D01*
X134307184Y-101643273D01*
X134332526Y-101629404D01*
X134359614Y-101618460D01*
X134583854Y-101527861D01*
X134669086Y-101493425D01*
X134738618Y-101486563D01*
X134800822Y-101518382D01*
X134835948Y-101578780D01*
X134832845Y-101648580D01*
X134822048Y-101671889D01*
X134801680Y-101706057D01*
X134795135Y-101721476D01*
X134760057Y-101850583D01*
X134757900Y-101867189D01*
X134758837Y-102001460D01*
X134760968Y-102017117D01*
X134781457Y-102093048D01*
X134783828Y-102100114D01*
X134996294Y-102625986D01*
X135005997Y-102638244D01*
X135007710Y-102638831D01*
X135015332Y-102637525D01*
X135555574Y-102419252D01*
X136562653Y-102012366D01*
X136574911Y-102002663D01*
X136575498Y-102000950D01*
X136574192Y-101993331D01*
X136573400Y-101991370D01*
X136572781Y-101985099D01*
X136571939Y-101980187D01*
X136572290Y-101980127D01*
X136566537Y-101921838D01*
X136598354Y-101859633D01*
X136658751Y-101824505D01*
X136728552Y-101827607D01*
X136776051Y-101857235D01*
X136981093Y-102062276D01*
X136988402Y-102070252D01*
X137000748Y-102084965D01*
X137012682Y-102099188D01*
X137022074Y-102104610D01*
X137022076Y-102104612D01*
X137045394Y-102118074D01*
X137054520Y-102123888D01*
X137085453Y-102145548D01*
X137095928Y-102148355D01*
X137099237Y-102149898D01*
X137102695Y-102151157D01*
X137112092Y-102156582D01*
X137142023Y-102161860D01*
X137149282Y-102163140D01*
X137159840Y-102165481D01*
X137184045Y-102171966D01*
X137196331Y-102175258D01*
X137207135Y-102174313D01*
X137207138Y-102174313D01*
X137233961Y-102171966D01*
X137244768Y-102171494D01*
X138483272Y-102171494D01*
X138550311Y-102191179D01*
X138596066Y-102243983D01*
X138606010Y-102313141D01*
X138578261Y-102375200D01*
X138561270Y-102395449D01*
X138553962Y-102403424D01*
X137170131Y-103787258D01*
X136910230Y-104047159D01*
X136869000Y-104074449D01*
X134317291Y-105105402D01*
X134247759Y-105112264D01*
X134222390Y-105104574D01*
X133591711Y-104836869D01*
X133581947Y-104832212D01*
X133563839Y-104822584D01*
X133548605Y-104814484D01*
X133511206Y-104809228D01*
X133500570Y-104807257D01*
X133474334Y-104801200D01*
X133463765Y-104798760D01*
X133453000Y-104800082D01*
X133449338Y-104799890D01*
X133445676Y-104800018D01*
X133434934Y-104798508D01*
X133397981Y-104806363D01*
X133387332Y-104808145D01*
X133349832Y-104812749D01*
X133340164Y-104817675D01*
X133316175Y-104829898D01*
X133306338Y-104834382D01*
X132526692Y-105149378D01*
X132042848Y-105344863D01*
X131973316Y-105351725D01*
X131911112Y-105319906D01*
X131881570Y-105269109D01*
X131870046Y-105255861D01*
X130743430Y-104777642D01*
X130107331Y-104507633D01*
X131414697Y-104507633D01*
X131415494Y-104509260D01*
X131421806Y-104513725D01*
X132061330Y-104785186D01*
X132075113Y-104786789D01*
X132079288Y-104779890D01*
X132092550Y-104674913D01*
X132093033Y-104668005D01*
X132093333Y-104646540D01*
X132093043Y-104639632D01*
X132074606Y-104451600D01*
X132072261Y-104439758D01*
X132018405Y-104261376D01*
X132013804Y-104250215D01*
X131926326Y-104085691D01*
X131919646Y-104075638D01*
X131801879Y-103931241D01*
X131793367Y-103922670D01*
X131707077Y-103851284D01*
X131694325Y-103845809D01*
X131688658Y-103850950D01*
X131416503Y-104492108D01*
X131414697Y-104507633D01*
X130107331Y-104507633D01*
X130091243Y-104500804D01*
X130077460Y-104499201D01*
X130073498Y-104505748D01*
X130062858Y-104600603D01*
X130035823Y-104665030D01*
X129978248Y-104704614D01*
X129908412Y-104706786D01*
X129848488Y-104670857D01*
X129824660Y-104633231D01*
X129822121Y-104626947D01*
X129710487Y-104350641D01*
X129706877Y-104340448D01*
X129705988Y-104337538D01*
X129695832Y-104304321D01*
X129689305Y-104295659D01*
X129689302Y-104295654D01*
X129673093Y-104274145D01*
X129666964Y-104265228D01*
X129661009Y-104255697D01*
X129646960Y-104233213D01*
X129638407Y-104226531D01*
X129635953Y-104223805D01*
X129633280Y-104221312D01*
X129626750Y-104212647D01*
X129617652Y-104206739D01*
X129617650Y-104206737D01*
X129595074Y-104192077D01*
X129586266Y-104185794D01*
X129565055Y-104169222D01*
X129556505Y-104162542D01*
X129546189Y-104159190D01*
X129546187Y-104159189D01*
X129538193Y-104156592D01*
X129511785Y-104144427D01*
X129506864Y-104141415D01*
X129502000Y-104137738D01*
X129368471Y-104073068D01*
X129355504Y-104065798D01*
X129292252Y-104025165D01*
X130278951Y-104025165D01*
X130283921Y-104030720D01*
X130925513Y-104303060D01*
X130941038Y-104304866D01*
X130942665Y-104304069D01*
X130947130Y-104297757D01*
X131218873Y-103657568D01*
X131220476Y-103643785D01*
X131214098Y-103639925D01*
X131089611Y-103626841D01*
X131077546Y-103626756D01*
X130891979Y-103643644D01*
X130880116Y-103645907D01*
X130701363Y-103698517D01*
X130690174Y-103703038D01*
X130525041Y-103789368D01*
X130514945Y-103795974D01*
X130369724Y-103912734D01*
X130361099Y-103921181D01*
X130284515Y-104012451D01*
X130278951Y-104025165D01*
X129292252Y-104025165D01*
X129266175Y-104008413D01*
X129252118Y-103997907D01*
X129190792Y-103944912D01*
X129178031Y-103932148D01*
X129130985Y-103877684D01*
X129121778Y-103865602D01*
X129078020Y-103800231D01*
X129073061Y-103792174D01*
X129066839Y-103781143D01*
X129025690Y-103708189D01*
X129024414Y-103705868D01*
X128970482Y-103605266D01*
X128970451Y-103605209D01*
X128970367Y-103605052D01*
X128969012Y-103602566D01*
X128968858Y-103602288D01*
X128967373Y-103599653D01*
X128961410Y-103589252D01*
X128904377Y-103489779D01*
X128904354Y-103489740D01*
X128904095Y-103489288D01*
X128900548Y-103483337D01*
X128900145Y-103482686D01*
X128896618Y-103477186D01*
X128818578Y-103359643D01*
X128816585Y-103356775D01*
X128813936Y-103352964D01*
X128813930Y-103352955D01*
X128813580Y-103352452D01*
X128812983Y-103351631D01*
X128807486Y-103344412D01*
X128712339Y-103225023D01*
X128688003Y-103201011D01*
X128679010Y-103191126D01*
X128658863Y-103166423D01*
X128631305Y-103143625D01*
X128614258Y-103126457D01*
X128612154Y-103123877D01*
X128612153Y-103123876D01*
X128608302Y-103119154D01*
X128490595Y-103021941D01*
X128483599Y-103016414D01*
X128482810Y-103015818D01*
X128482246Y-103015411D01*
X128482219Y-103015391D01*
X128476131Y-103010997D01*
X128476115Y-103010986D01*
X128475582Y-103010601D01*
X128411668Y-102966540D01*
X128359703Y-102930716D01*
X128359664Y-102930690D01*
X128359373Y-102930489D01*
X128353708Y-102926720D01*
X128353083Y-102926319D01*
X128352668Y-102926062D01*
X128347863Y-102923087D01*
X128347811Y-102923055D01*
X128347421Y-102922814D01*
X128271333Y-102877407D01*
X128238455Y-102857786D01*
X128238395Y-102857751D01*
X128238178Y-102857621D01*
X128235685Y-102856158D01*
X128235396Y-102855991D01*
X128232820Y-102854526D01*
X128132987Y-102798742D01*
X128130689Y-102797424D01*
X128047534Y-102748590D01*
X128039563Y-102743490D01*
X127974972Y-102698602D01*
X127963054Y-102689188D01*
X127909407Y-102641189D01*
X127896866Y-102628205D01*
X127844955Y-102565970D01*
X127834696Y-102551731D01*
X127778880Y-102461414D01*
X127778100Y-102459965D01*
X129232842Y-102459965D01*
X129248637Y-102648059D01*
X129300665Y-102829503D01*
X129303437Y-102834898D01*
X129303438Y-102834899D01*
X129316996Y-102861280D01*
X129386945Y-102997386D01*
X129390713Y-103002140D01*
X129496714Y-103135880D01*
X129504190Y-103145313D01*
X129508809Y-103149244D01*
X129643321Y-103263723D01*
X129643326Y-103263727D01*
X129647935Y-103267649D01*
X129812705Y-103359736D01*
X129884351Y-103383015D01*
X129977120Y-103413157D01*
X129992222Y-103418064D01*
X130179650Y-103440414D01*
X130185694Y-103439949D01*
X130185695Y-103439949D01*
X130243813Y-103435477D01*
X130367850Y-103425933D01*
X130549653Y-103375172D01*
X130659771Y-103319548D01*
X130712722Y-103292801D01*
X130712724Y-103292800D01*
X130718134Y-103290067D01*
X130866875Y-103173857D01*
X130959457Y-103066600D01*
X130986247Y-103035564D01*
X130986249Y-103035561D01*
X130990212Y-103030970D01*
X130995342Y-103021941D01*
X131037421Y-102947868D01*
X131083447Y-102866847D01*
X131134851Y-102712321D01*
X131141116Y-102693489D01*
X131141116Y-102693488D01*
X131143028Y-102687741D01*
X131146039Y-102663911D01*
X131166250Y-102503918D01*
X131166250Y-102503917D01*
X131166685Y-102500474D01*
X131166957Y-102480970D01*
X131167014Y-102476930D01*
X131167014Y-102476924D01*
X131167062Y-102473469D01*
X131155107Y-102351544D01*
X131149235Y-102291650D01*
X131149235Y-102291648D01*
X131148643Y-102285614D01*
X131146891Y-102279811D01*
X131095839Y-102110720D01*
X131094086Y-102104914D01*
X131026696Y-101978170D01*
X131008318Y-101943606D01*
X131008317Y-101943604D01*
X131005471Y-101938252D01*
X131000677Y-101932373D01*
X130890006Y-101796679D01*
X130890005Y-101796678D01*
X130886171Y-101791977D01*
X130791394Y-101713571D01*
X130745407Y-101675527D01*
X130745404Y-101675525D01*
X130740732Y-101671660D01*
X130735053Y-101668589D01*
X130580036Y-101584772D01*
X130574693Y-101581883D01*
X130499553Y-101558623D01*
X130400179Y-101527861D01*
X130400175Y-101527860D01*
X130394379Y-101526066D01*
X130206657Y-101506336D01*
X130200624Y-101506885D01*
X130200620Y-101506885D01*
X130024720Y-101522893D01*
X130024719Y-101522893D01*
X130018678Y-101523443D01*
X130012859Y-101525156D01*
X130012857Y-101525156D01*
X129843417Y-101575025D01*
X129843412Y-101575027D01*
X129837602Y-101576737D01*
X129832232Y-101579544D01*
X129832228Y-101579546D01*
X129770626Y-101611751D01*
X129670325Y-101664187D01*
X129612792Y-101710445D01*
X129528853Y-101777934D01*
X129523221Y-101782462D01*
X129401891Y-101927057D01*
X129361268Y-102000950D01*
X129315240Y-102084675D01*
X129310957Y-102092465D01*
X129253883Y-102272386D01*
X129248670Y-102318862D01*
X129234785Y-102442647D01*
X129232842Y-102459965D01*
X127778100Y-102459965D01*
X127771835Y-102448320D01*
X127767523Y-102439005D01*
X127709507Y-102313685D01*
X127706198Y-102309025D01*
X127704663Y-102306862D01*
X127690798Y-102281525D01*
X127444489Y-101671889D01*
X127282851Y-101271819D01*
X127275166Y-101243574D01*
X127274020Y-101235851D01*
X127271796Y-101229634D01*
X127261335Y-101200400D01*
X127246378Y-101158600D01*
X127242874Y-101147065D01*
X127229090Y-101092208D01*
X127226395Y-101078037D01*
X127221291Y-101038908D01*
X127220251Y-101023571D01*
X127220151Y-101005819D01*
X127220068Y-100991255D01*
X127220758Y-100977474D01*
X127220993Y-100975265D01*
X127224580Y-100941450D01*
X127225976Y-100931875D01*
X127234924Y-100883728D01*
X127235760Y-100879614D01*
X127249771Y-100816247D01*
X127250120Y-100814637D01*
X127250203Y-100814246D01*
X127265839Y-100740408D01*
X127265859Y-100740312D01*
X127265899Y-100740122D01*
X127266742Y-100735926D01*
X127266834Y-100735442D01*
X127267605Y-100731137D01*
X127273102Y-100698440D01*
X127280444Y-100654769D01*
X127288585Y-100626878D01*
X127353926Y-100472943D01*
X127353928Y-100472938D01*
X127355065Y-100470259D01*
X127364380Y-100440897D01*
X127372764Y-100309456D01*
X127357447Y-100245408D01*
X127344287Y-100190378D01*
X127344286Y-100190376D01*
X127342130Y-100181360D01*
X127275184Y-100067936D01*
X127256439Y-100050849D01*
X127183431Y-99984301D01*
X127183432Y-99984301D01*
X127177846Y-99979210D01*
X127150750Y-99964558D01*
X127148078Y-99963424D01*
X127148068Y-99963419D01*
X126647638Y-99751001D01*
X126617165Y-99738066D01*
X126614394Y-99737187D01*
X126614386Y-99737184D01*
X126595005Y-99731036D01*
X126587802Y-99728751D01*
X126533430Y-99725282D01*
X126465615Y-99720956D01*
X126465613Y-99720956D01*
X126456362Y-99720366D01*
X126447348Y-99722522D01*
X126447346Y-99722522D01*
X126421301Y-99728751D01*
X126328266Y-99751001D01*
X126214841Y-99817947D01*
X126208595Y-99824799D01*
X126208594Y-99824800D01*
X126132546Y-99908230D01*
X126126115Y-99915285D01*
X126122521Y-99921932D01*
X126122518Y-99921936D01*
X126120577Y-99925527D01*
X126111464Y-99942381D01*
X125875203Y-100498979D01*
X125874325Y-100501747D01*
X125874323Y-100501752D01*
X125869054Y-100518362D01*
X125865888Y-100528341D01*
X125857504Y-100659782D01*
X125865087Y-100691491D01*
X125882656Y-100764954D01*
X125888138Y-100787878D01*
X125955084Y-100901302D01*
X125961935Y-100907546D01*
X125961935Y-100907547D01*
X125993853Y-100936641D01*
X126052422Y-100990028D01*
X126059067Y-100993621D01*
X126059068Y-100993622D01*
X126076945Y-101003289D01*
X126076951Y-101003292D01*
X126079518Y-101004680D01*
X126082199Y-101005818D01*
X126082201Y-101005819D01*
X126270389Y-101085700D01*
X126296128Y-101100486D01*
X126313626Y-101113552D01*
X126313720Y-101113621D01*
X126313887Y-101113746D01*
X126317476Y-101116366D01*
X126317881Y-101116655D01*
X126321417Y-101119123D01*
X126384186Y-101161955D01*
X126385817Y-101163056D01*
X126385966Y-101163155D01*
X126386096Y-101163243D01*
X126439986Y-101199265D01*
X126443361Y-101201602D01*
X126483458Y-101230369D01*
X126491007Y-101236239D01*
X126519029Y-101259823D01*
X126528981Y-101269185D01*
X126533963Y-101274420D01*
X126551537Y-101292886D01*
X126561371Y-101304587D01*
X126585055Y-101336577D01*
X126592922Y-101348600D01*
X126621260Y-101397941D01*
X126626736Y-101408649D01*
X126644643Y-101448299D01*
X126654297Y-101517499D01*
X126625006Y-101580932D01*
X126566070Y-101618460D01*
X126496201Y-101618167D01*
X126471141Y-101607580D01*
X126454247Y-101598138D01*
X126448216Y-101595184D01*
X126440434Y-101591880D01*
X126424907Y-101590073D01*
X126423282Y-101590869D01*
X126418814Y-101597185D01*
X126242069Y-102013570D01*
X126240263Y-102029095D01*
X126241060Y-102030722D01*
X126247372Y-102035187D01*
X126652252Y-102207048D01*
X126667777Y-102208854D01*
X126669404Y-102208057D01*
X126673869Y-102201744D01*
X126683820Y-102178301D01*
X126686098Y-102172007D01*
X126694807Y-102143163D01*
X126733029Y-102084675D01*
X126796804Y-102056136D01*
X126865885Y-102066607D01*
X126918338Y-102112764D01*
X126928483Y-102132550D01*
X127064485Y-102469167D01*
X127087349Y-102525758D01*
X127093715Y-102549593D01*
X127093821Y-102549568D01*
X127094848Y-102553833D01*
X127095198Y-102555144D01*
X127096084Y-102561523D01*
X127105901Y-102589780D01*
X127144772Y-102701664D01*
X127148801Y-102715977D01*
X127171390Y-102819723D01*
X127173901Y-102837091D01*
X127179792Y-102917928D01*
X127179790Y-102935980D01*
X127177353Y-102969328D01*
X127174955Y-103002140D01*
X127174545Y-103007744D01*
X127172513Y-103022791D01*
X127158119Y-103095479D01*
X127157226Y-103099986D01*
X127155035Y-103109191D01*
X127129156Y-103202034D01*
X127128414Y-103204589D01*
X127095332Y-103314130D01*
X127095332Y-103314131D01*
X127094494Y-103316981D01*
X127094425Y-103317222D01*
X127093651Y-103319998D01*
X127093548Y-103320378D01*
X127093543Y-103320396D01*
X127060961Y-103440542D01*
X127060343Y-103442819D01*
X127058670Y-103449419D01*
X127058494Y-103450165D01*
X127057070Y-103456669D01*
X127056975Y-103457137D01*
X127056966Y-103457182D01*
X127036766Y-103557200D01*
X127029136Y-103594978D01*
X127029011Y-103595671D01*
X127029004Y-103595710D01*
X127027895Y-103601883D01*
X127027577Y-103603652D01*
X127027419Y-103604654D01*
X127026210Y-103613589D01*
X127009069Y-103765286D01*
X127009206Y-103785733D01*
X127009257Y-103793434D01*
X127008487Y-103808081D01*
X127005534Y-103834411D01*
X127021329Y-104022505D01*
X127073357Y-104203949D01*
X127076129Y-104209344D01*
X127076130Y-104209345D01*
X127088397Y-104233213D01*
X127159637Y-104371832D01*
X127163405Y-104376586D01*
X127272100Y-104513725D01*
X127276882Y-104519759D01*
X127290614Y-104531446D01*
X127416013Y-104638169D01*
X127416018Y-104638173D01*
X127420627Y-104642095D01*
X127585397Y-104734182D01*
X127703223Y-104772466D01*
X127760897Y-104811902D01*
X127788096Y-104876260D01*
X127776182Y-104945107D01*
X127742603Y-104987034D01*
X127729713Y-104997398D01*
X127646064Y-105064654D01*
X127524734Y-105209249D01*
X127470813Y-105307330D01*
X127444486Y-105355220D01*
X127433800Y-105374657D01*
X127431968Y-105380431D01*
X127431968Y-105380432D01*
X127418503Y-105422881D01*
X127376726Y-105554578D01*
X127366739Y-105643612D01*
X127357671Y-105724455D01*
X127355685Y-105742157D01*
X127371480Y-105930251D01*
X127373154Y-105936089D01*
X127408543Y-106059504D01*
X127423508Y-106111695D01*
X127424451Y-106113529D01*
X127425589Y-106117048D01*
X127425892Y-106119057D01*
X127427961Y-106124788D01*
X127427961Y-106124789D01*
X127467838Y-106235260D01*
X127470903Y-106244988D01*
X127496298Y-106338883D01*
X127498539Y-106348750D01*
X127513992Y-106432473D01*
X127515207Y-106440528D01*
X127525031Y-106524242D01*
X127525450Y-106528424D01*
X127533042Y-106619776D01*
X127533068Y-106620086D01*
X127533181Y-106621399D01*
X127542045Y-106720370D01*
X127542478Y-106724687D01*
X127542534Y-106725192D01*
X127542570Y-106725484D01*
X127543001Y-106729006D01*
X127543092Y-106729754D01*
X127543145Y-106730148D01*
X127543153Y-106730213D01*
X127543935Y-106736067D01*
X127543820Y-106769760D01*
X127543132Y-106774652D01*
X127541162Y-106785277D01*
X127535130Y-106811406D01*
X127532667Y-106822073D01*
X127533989Y-106832839D01*
X127533797Y-106836502D01*
X127533925Y-106840164D01*
X127532415Y-106850906D01*
X127534670Y-106861514D01*
X127534670Y-106861517D01*
X127540266Y-106887842D01*
X127542052Y-106898511D01*
X127546656Y-106936006D01*
X127551581Y-106945672D01*
X127563804Y-106969661D01*
X127568290Y-106979505D01*
X127635254Y-107145247D01*
X127636730Y-107149082D01*
X127680389Y-107268379D01*
X127682569Y-107274335D01*
X127685914Y-107279724D01*
X127685916Y-107279729D01*
X127690818Y-107287628D01*
X127700431Y-107306565D01*
X128592922Y-109515561D01*
X128604623Y-109544523D01*
X128608234Y-109554721D01*
X128616105Y-109580467D01*
X128616107Y-109580470D01*
X128619277Y-109590840D01*
X128625806Y-109599504D01*
X128642010Y-109621008D01*
X128648138Y-109629924D01*
X128662397Y-109652744D01*
X128662400Y-109652747D01*
X128668149Y-109661948D01*
X128676700Y-109668629D01*
X128679151Y-109671351D01*
X128681828Y-109673848D01*
X128688359Y-109682514D01*
X128697457Y-109688422D01*
X128697459Y-109688424D01*
X128720035Y-109703084D01*
X128728842Y-109709366D01*
X128758604Y-109732619D01*
X128768923Y-109735972D01*
X128794526Y-109744291D01*
X128804653Y-109748077D01*
X129300064Y-109958366D01*
X130303564Y-110384326D01*
X130313321Y-110388980D01*
X130346662Y-110406708D01*
X130365123Y-110409302D01*
X130384065Y-110411965D01*
X130394698Y-110413936D01*
X130420930Y-110419992D01*
X130420934Y-110419992D01*
X130431502Y-110422432D01*
X130442268Y-110421110D01*
X130445930Y-110421302D01*
X130449592Y-110421174D01*
X130460334Y-110422684D01*
X130497287Y-110414829D01*
X130507936Y-110413047D01*
X130545435Y-110408443D01*
X130579089Y-110391295D01*
X130588928Y-110386811D01*
X136843753Y-107859699D01*
X136890203Y-107850670D01*
X144477512Y-107850668D01*
X146121329Y-107850668D01*
X146131754Y-107851107D01*
X146170083Y-107854341D01*
X146180551Y-107851501D01*
X146185951Y-107851012D01*
X146197140Y-107850506D01*
X146619148Y-107850506D01*
X147073851Y-107850505D01*
X147101344Y-107853591D01*
X147110791Y-107855739D01*
X147116881Y-107855905D01*
X147116884Y-107855905D01*
X147240601Y-107859269D01*
X147280158Y-107860344D01*
X147287783Y-107860787D01*
X147426974Y-107873182D01*
X147435135Y-107874183D01*
X147550702Y-107892279D01*
X147558299Y-107893712D01*
X147660911Y-107916412D01*
X147666363Y-107917748D01*
X147766825Y-107944808D01*
X147768794Y-107945356D01*
X147873689Y-107975473D01*
X147873739Y-107975487D01*
X147873993Y-107975560D01*
X147877301Y-107976480D01*
X147877391Y-107976504D01*
X147877452Y-107976521D01*
X147922327Y-107988597D01*
X147989421Y-108006653D01*
X147993827Y-108007786D01*
X147994328Y-108007909D01*
X147998728Y-108008938D01*
X147999058Y-108009011D01*
X147999100Y-108009021D01*
X148096330Y-108030636D01*
X148121962Y-108036335D01*
X148125183Y-108037002D01*
X148127356Y-108037452D01*
X148127391Y-108037459D01*
X148127850Y-108037554D01*
X148128533Y-108037685D01*
X148134647Y-108038763D01*
X148276343Y-108061526D01*
X148276813Y-108061594D01*
X148276846Y-108061599D01*
X148279882Y-108062038D01*
X148282693Y-108062444D01*
X148283423Y-108062538D01*
X148286845Y-108062924D01*
X148289336Y-108063205D01*
X148289377Y-108063209D01*
X148289871Y-108063265D01*
X148290353Y-108063312D01*
X148290404Y-108063317D01*
X148445586Y-108078336D01*
X148445587Y-108078336D01*
X148449141Y-108078680D01*
X148462587Y-108078428D01*
X148470487Y-108078280D01*
X148487491Y-108079130D01*
X148501531Y-108080804D01*
X148507553Y-108081522D01*
X148513596Y-108081057D01*
X148513598Y-108081057D01*
X148571037Y-108076637D01*
X148693406Y-108067221D01*
X148770790Y-108045615D01*
X148867102Y-108018725D01*
X148867106Y-108018723D01*
X148872942Y-108017094D01*
X149039323Y-107933049D01*
X149044102Y-107929315D01*
X149044107Y-107929312D01*
X149122304Y-107868217D01*
X149186210Y-107818288D01*
X149308009Y-107677182D01*
X149314142Y-107666387D01*
X149397085Y-107520380D01*
X149400081Y-107515106D01*
X149458919Y-107338233D01*
X149461416Y-107318472D01*
X149470107Y-107249673D01*
X149482282Y-107153300D01*
X149482654Y-107126632D01*
X149484115Y-107126652D01*
X149499532Y-107064542D01*
X149550353Y-107016595D01*
X149619029Y-107003736D01*
X149683756Y-107030046D01*
X149692800Y-107038259D01*
X149694882Y-107040886D01*
X149699495Y-107044812D01*
X149699497Y-107044814D01*
X149831012Y-107156741D01*
X149836835Y-107161697D01*
X149842133Y-107164658D01*
X149994250Y-107249673D01*
X149999550Y-107252635D01*
X150076756Y-107277721D01*
X150165529Y-107306565D01*
X150176830Y-107310237D01*
X150182851Y-107310955D01*
X150269376Y-107321273D01*
X150361921Y-107332308D01*
X150367964Y-107331843D01*
X150367966Y-107331843D01*
X150444340Y-107325966D01*
X150547774Y-107318007D01*
X150640266Y-107292183D01*
X150721470Y-107269511D01*
X150721474Y-107269509D01*
X150727310Y-107267880D01*
X150893691Y-107183835D01*
X150898470Y-107180101D01*
X150898475Y-107180098D01*
X150992096Y-107106952D01*
X151040578Y-107069074D01*
X151074599Y-107029660D01*
X151090071Y-107014611D01*
X151097104Y-107008872D01*
X151101827Y-107005018D01*
X151196702Y-106890068D01*
X151198460Y-106887842D01*
X151201776Y-106883641D01*
X151202226Y-106883071D01*
X151202842Y-106882255D01*
X151208127Y-106874925D01*
X151221160Y-106855983D01*
X151286069Y-106761644D01*
X151286086Y-106761619D01*
X151286337Y-106761254D01*
X151290082Y-106755613D01*
X151290499Y-106754962D01*
X151291761Y-106752919D01*
X151293790Y-106749632D01*
X151294076Y-106749169D01*
X151294318Y-106748762D01*
X151294346Y-106748716D01*
X151347236Y-106659791D01*
X151357694Y-106642208D01*
X151359348Y-106639377D01*
X151359516Y-106639084D01*
X151360823Y-106636769D01*
X151367901Y-106624047D01*
X151415230Y-106538970D01*
X151416533Y-106536687D01*
X151463960Y-106455534D01*
X151469039Y-106447558D01*
X151512428Y-106384833D01*
X151521834Y-106372876D01*
X151567965Y-106321112D01*
X151580962Y-106308514D01*
X151640837Y-106258421D01*
X151655097Y-106248121D01*
X151742430Y-106194046D01*
X151755572Y-106186967D01*
X151798807Y-106166938D01*
X151886530Y-106126300D01*
X151892344Y-106122170D01*
X151893321Y-106121476D01*
X151918681Y-106107595D01*
X152167814Y-106006939D01*
X152589337Y-105836633D01*
X152599527Y-105833025D01*
X152625262Y-105825157D01*
X152625263Y-105825156D01*
X152635636Y-105821985D01*
X152665811Y-105799246D01*
X152674697Y-105793140D01*
X152706744Y-105773114D01*
X152713422Y-105764566D01*
X152716151Y-105762109D01*
X152718652Y-105759427D01*
X152727310Y-105752903D01*
X152733215Y-105743810D01*
X152733218Y-105743807D01*
X152747878Y-105721232D01*
X152754160Y-105712424D01*
X152770737Y-105691207D01*
X152770738Y-105691205D01*
X152777415Y-105682659D01*
X152780766Y-105672345D01*
X152780769Y-105672340D01*
X152789087Y-105646740D01*
X152792874Y-105636611D01*
X153227272Y-104613226D01*
X153271586Y-104559207D01*
X153338070Y-104537721D01*
X153405616Y-104555590D01*
X153452779Y-104607141D01*
X153464842Y-104673586D01*
X153435316Y-104979573D01*
X153430063Y-105034008D01*
X153428559Y-105044695D01*
X153352697Y-105453996D01*
X153351110Y-105462556D01*
X153348685Y-105473064D01*
X153237938Y-105872702D01*
X153235189Y-105882621D01*
X153231860Y-105892876D01*
X153127587Y-106172095D01*
X153083176Y-106291017D01*
X153078964Y-106300954D01*
X152896222Y-106684655D01*
X152891161Y-106694188D01*
X152675758Y-107060523D01*
X152669887Y-107069581D01*
X152423426Y-107415820D01*
X152416791Y-107424332D01*
X152232295Y-107640864D01*
X152168928Y-107715234D01*
X152141166Y-107747816D01*
X152133817Y-107755716D01*
X152014611Y-107873181D01*
X151831099Y-108054012D01*
X151823098Y-108061238D01*
X151495569Y-108332094D01*
X151486985Y-108338585D01*
X151263098Y-108493040D01*
X151137157Y-108579924D01*
X151128015Y-108585660D01*
X150758539Y-108795655D01*
X150748932Y-108800575D01*
X150362594Y-108977647D01*
X150352596Y-108981713D01*
X149952314Y-109124520D01*
X149942010Y-109127698D01*
X149612121Y-109213912D01*
X149530829Y-109235157D01*
X149520279Y-109237429D01*
X149101304Y-109308724D01*
X149090617Y-109310068D01*
X148667019Y-109344660D01*
X148656242Y-109345069D01*
X148422807Y-109343764D01*
X148231263Y-109342694D01*
X148220483Y-109342164D01*
X147797327Y-109302843D01*
X147786633Y-109301378D01*
X147368480Y-109225404D01*
X147357956Y-109223014D01*
X146948012Y-109110972D01*
X146937734Y-109107676D01*
X146539085Y-108960409D01*
X146529132Y-108956232D01*
X146144788Y-108774850D01*
X146135237Y-108769823D01*
X145768126Y-108555709D01*
X145759048Y-108549870D01*
X145436912Y-108322280D01*
X145431036Y-108316809D01*
X145430852Y-108317046D01*
X145419824Y-108308481D01*
X145410977Y-108297678D01*
X145398320Y-108291780D01*
X145392168Y-108287002D01*
X145385154Y-108283615D01*
X145374246Y-108274901D01*
X145360637Y-108271778D01*
X145358638Y-108270813D01*
X145342888Y-108265404D01*
X145340718Y-108264937D01*
X145328062Y-108259040D01*
X145314099Y-108259214D01*
X145283837Y-108259591D01*
X145282352Y-108259601D01*
X137984676Y-108263132D01*
X136801398Y-108263705D01*
X136780643Y-108261965D01*
X136778806Y-108261654D01*
X136776255Y-108261222D01*
X136776254Y-108261222D01*
X136762484Y-108258891D01*
X136729092Y-108268524D01*
X136727286Y-108269045D01*
X136720551Y-108270785D01*
X136694640Y-108276708D01*
X136694638Y-108276709D01*
X136684840Y-108278949D01*
X136680243Y-108282616D01*
X136674593Y-108284246D01*
X136667098Y-108290945D01*
X136667097Y-108290946D01*
X136647278Y-108308662D01*
X136641963Y-108313150D01*
X136613329Y-108335991D01*
X136610777Y-108341288D01*
X136606392Y-108345208D01*
X136602545Y-108354492D01*
X136601306Y-108356046D01*
X136600240Y-108359246D01*
X136592965Y-108369499D01*
X136588849Y-108376640D01*
X136368498Y-108664667D01*
X136295865Y-108759607D01*
X136289916Y-108766803D01*
X135948421Y-109149603D01*
X135941950Y-109156328D01*
X135572608Y-109512316D01*
X135565641Y-109518543D01*
X135367622Y-109682514D01*
X135170532Y-109845715D01*
X135163132Y-109851386D01*
X134744512Y-110147872D01*
X134736711Y-110152968D01*
X134296935Y-110417100D01*
X134288765Y-110421597D01*
X133830354Y-110651858D01*
X133821851Y-110655734D01*
X133347442Y-110850805D01*
X133338672Y-110854031D01*
X132850896Y-111012831D01*
X132841909Y-111015387D01*
X132343552Y-111137007D01*
X132334398Y-111138878D01*
X131828312Y-111222621D01*
X131819060Y-111223796D01*
X131308093Y-111269193D01*
X131298770Y-111269669D01*
X130883441Y-111275166D01*
X130785843Y-111276458D01*
X130776502Y-111276230D01*
X130663398Y-111269193D01*
X130264499Y-111244374D01*
X130255215Y-111243444D01*
X130001154Y-111208285D01*
X129747101Y-111173127D01*
X129737899Y-111171499D01*
X129236503Y-111063114D01*
X129227452Y-111060797D01*
X128735635Y-110914963D01*
X128726788Y-110911972D01*
X128566062Y-110850805D01*
X128247372Y-110729522D01*
X128238770Y-110725872D01*
X127774440Y-110507834D01*
X127766137Y-110503546D01*
X127623054Y-110422684D01*
X127319558Y-110251167D01*
X127311602Y-110246267D01*
X126885278Y-109960964D01*
X126877714Y-109955478D01*
X126741566Y-109848687D01*
X126474093Y-109638888D01*
X126466968Y-109632852D01*
X126409657Y-109580467D01*
X126152120Y-109345069D01*
X126088335Y-109286767D01*
X126081680Y-109280207D01*
X125730186Y-108906594D01*
X125724044Y-108899552D01*
X125401676Y-108500525D01*
X125396082Y-108493040D01*
X125104683Y-108070876D01*
X125099669Y-108062992D01*
X124840886Y-107620082D01*
X124836479Y-107611841D01*
X124611789Y-107150710D01*
X124608015Y-107142162D01*
X124567600Y-107040395D01*
X125489345Y-107040395D01*
X125490651Y-107048017D01*
X125704803Y-107578060D01*
X125708004Y-107584787D01*
X125746017Y-107653648D01*
X125755358Y-107666387D01*
X125847952Y-107763621D01*
X125861047Y-107774075D01*
X125975966Y-107842578D01*
X125991374Y-107849119D01*
X126120486Y-107884199D01*
X126137091Y-107886356D01*
X126271365Y-107885419D01*
X126287018Y-107883288D01*
X126362942Y-107862801D01*
X126370029Y-107860423D01*
X126432297Y-107835266D01*
X126444555Y-107825564D01*
X126445141Y-107823851D01*
X126443835Y-107816228D01*
X126044938Y-106828925D01*
X126035235Y-106816667D01*
X126033522Y-106816080D01*
X126025900Y-106817386D01*
X125502190Y-107028979D01*
X125489932Y-107038682D01*
X125489345Y-107040395D01*
X124567600Y-107040395D01*
X124471520Y-106798459D01*
X124418679Y-106665400D01*
X124415561Y-106656594D01*
X124406267Y-106626830D01*
X126512956Y-106626830D01*
X126514262Y-106634452D01*
X126913159Y-107621754D01*
X126922862Y-107634012D01*
X126924575Y-107634599D01*
X126932197Y-107633293D01*
X126998647Y-107606445D01*
X127005374Y-107603244D01*
X127074235Y-107565231D01*
X127086974Y-107555890D01*
X127184209Y-107463295D01*
X127194663Y-107450199D01*
X127263163Y-107335288D01*
X127269708Y-107319869D01*
X127304786Y-107190762D01*
X127306943Y-107174156D01*
X127306006Y-107039885D01*
X127303875Y-107024228D01*
X127283386Y-106948297D01*
X127281015Y-106941231D01*
X127068549Y-106415359D01*
X127058846Y-106403101D01*
X127057133Y-106402514D01*
X127049511Y-106403820D01*
X126525801Y-106615414D01*
X126513543Y-106625117D01*
X126512956Y-106626830D01*
X124406267Y-106626830D01*
X124262669Y-106166938D01*
X124260222Y-106157920D01*
X124174975Y-105789320D01*
X125050285Y-105789320D01*
X125051222Y-105923591D01*
X125053353Y-105939248D01*
X125073842Y-106015179D01*
X125076213Y-106022245D01*
X125288679Y-106548117D01*
X125298382Y-106560375D01*
X125300095Y-106560962D01*
X125307717Y-106559656D01*
X125831427Y-106348062D01*
X125843685Y-106338359D01*
X125844272Y-106336646D01*
X125842966Y-106329024D01*
X125444069Y-105341722D01*
X125434366Y-105329464D01*
X125432653Y-105328877D01*
X125425031Y-105330183D01*
X125358581Y-105357031D01*
X125351854Y-105360232D01*
X125282993Y-105398245D01*
X125270254Y-105407586D01*
X125173019Y-105500181D01*
X125162565Y-105513277D01*
X125094065Y-105628188D01*
X125087520Y-105643607D01*
X125052442Y-105772714D01*
X125050285Y-105789320D01*
X124174975Y-105789320D01*
X124144638Y-105658148D01*
X124142877Y-105648971D01*
X124065255Y-105141906D01*
X124064993Y-105139625D01*
X125912087Y-105139625D01*
X125913393Y-105147248D01*
X126312290Y-106134551D01*
X126321993Y-106146809D01*
X126323706Y-106147396D01*
X126331328Y-106146090D01*
X126855038Y-105934497D01*
X126867296Y-105924794D01*
X126867883Y-105923081D01*
X126866577Y-105915459D01*
X126652425Y-105385416D01*
X126649224Y-105378689D01*
X126611211Y-105309828D01*
X126601870Y-105297089D01*
X126509276Y-105199855D01*
X126496181Y-105189401D01*
X126381262Y-105120898D01*
X126365854Y-105114357D01*
X126236742Y-105079277D01*
X126220137Y-105077120D01*
X126085863Y-105078057D01*
X126070210Y-105080188D01*
X125994286Y-105100675D01*
X125987199Y-105103053D01*
X125924931Y-105128210D01*
X125912673Y-105137912D01*
X125912087Y-105139625D01*
X124064993Y-105139625D01*
X124064190Y-105132623D01*
X124024973Y-104621158D01*
X124024610Y-104611821D01*
X124024256Y-104304321D01*
X124024019Y-104098844D01*
X124024360Y-104089516D01*
X124024645Y-104085691D01*
X124046532Y-103791350D01*
X124062401Y-103577949D01*
X124063445Y-103568663D01*
X124101809Y-103314131D01*
X124139900Y-103061419D01*
X124141638Y-103052247D01*
X124141959Y-103050847D01*
X124166920Y-102941775D01*
X125852853Y-102941775D01*
X125853650Y-102943401D01*
X125859964Y-102947868D01*
X125871900Y-102952934D01*
X125878186Y-102955210D01*
X125924946Y-102969328D01*
X125940157Y-102971907D01*
X126063078Y-102977166D01*
X126080479Y-102975429D01*
X126198909Y-102946231D01*
X126215126Y-102939678D01*
X126320599Y-102878415D01*
X126334321Y-102867578D01*
X126419093Y-102778403D01*
X126428241Y-102765984D01*
X126452063Y-102723360D01*
X126455016Y-102717331D01*
X126463205Y-102698042D01*
X126465011Y-102682514D01*
X126464215Y-102680888D01*
X126457900Y-102676421D01*
X126053021Y-102504560D01*
X126037496Y-102502754D01*
X126035869Y-102503551D01*
X126031404Y-102509863D01*
X125854659Y-102926250D01*
X125852853Y-102941775D01*
X124166920Y-102941775D01*
X124256071Y-102552210D01*
X124258497Y-102543186D01*
X124320820Y-102341961D01*
X125096048Y-102341961D01*
X125097784Y-102359361D01*
X125126985Y-102477795D01*
X125133533Y-102494002D01*
X125194797Y-102599477D01*
X125205638Y-102613205D01*
X125294812Y-102697976D01*
X125307230Y-102707123D01*
X125349848Y-102730941D01*
X125355884Y-102733898D01*
X125363666Y-102737202D01*
X125379193Y-102739009D01*
X125380818Y-102738213D01*
X125385286Y-102731897D01*
X125562031Y-102315512D01*
X125563837Y-102299987D01*
X125563040Y-102298360D01*
X125556728Y-102293895D01*
X125151848Y-102122034D01*
X125136323Y-102120228D01*
X125134696Y-102121025D01*
X125130231Y-102127338D01*
X125120280Y-102150781D01*
X125118000Y-102157080D01*
X125103886Y-102203826D01*
X125101307Y-102219036D01*
X125096048Y-102341961D01*
X124320820Y-102341961D01*
X124410263Y-102053174D01*
X124413362Y-102044358D01*
X124468831Y-101903741D01*
X124532311Y-101742813D01*
X124570276Y-101646568D01*
X125339089Y-101646568D01*
X125339885Y-101648194D01*
X125346200Y-101652661D01*
X125751079Y-101824522D01*
X125766604Y-101826328D01*
X125768231Y-101825531D01*
X125772696Y-101819219D01*
X125949441Y-101402832D01*
X125951247Y-101387307D01*
X125950450Y-101385681D01*
X125944136Y-101381214D01*
X125932200Y-101376148D01*
X125925914Y-101373872D01*
X125879154Y-101359754D01*
X125863943Y-101357175D01*
X125741022Y-101351916D01*
X125723621Y-101353653D01*
X125605191Y-101382851D01*
X125588974Y-101389404D01*
X125483501Y-101450667D01*
X125469779Y-101461504D01*
X125385007Y-101550679D01*
X125375859Y-101563098D01*
X125352037Y-101605722D01*
X125349084Y-101611751D01*
X125340895Y-101631040D01*
X125339089Y-101646568D01*
X124570276Y-101646568D01*
X124601592Y-101567180D01*
X124605346Y-101558623D01*
X124828982Y-101096959D01*
X124833370Y-101088709D01*
X125085573Y-100654769D01*
X125091129Y-100645210D01*
X125096124Y-100637315D01*
X125103293Y-100626878D01*
X125386557Y-100214471D01*
X125392128Y-100206981D01*
X125405479Y-100190378D01*
X125713578Y-99807211D01*
X125719704Y-99800155D01*
X125831437Y-99680842D01*
X126070346Y-99425725D01*
X126076968Y-99419168D01*
X126454811Y-99072205D01*
X126461922Y-99066153D01*
X126463416Y-99064976D01*
X126827652Y-98777920D01*
X126864810Y-98748636D01*
X126872362Y-98743132D01*
X127177166Y-98538134D01*
X127298027Y-98456848D01*
X127305969Y-98451931D01*
X127322681Y-98442436D01*
X127751976Y-98198520D01*
X127760265Y-98194215D01*
X127811958Y-98169796D01*
X128099076Y-98034164D01*
X128224085Y-97975111D01*
X128232678Y-97971441D01*
X128711693Y-97787881D01*
X128720539Y-97784869D01*
X129211994Y-97637909D01*
X129221041Y-97635571D01*
X129722179Y-97526034D01*
X129731376Y-97524384D01*
X130125329Y-97468941D01*
X130239341Y-97452896D01*
X130248629Y-97451943D01*
X130760544Y-97418909D01*
X130769879Y-97418659D01*
X131282832Y-97424268D01*
G37*
G04 #@! TD.AperFunction*
G04 #@! TA.AperFunction,Conductor*
G36*
X129477265Y-105563658D02*
G01*
X129520566Y-105618397D01*
X129535966Y-105656513D01*
X129590421Y-105791292D01*
X129590663Y-105791892D01*
X129594274Y-105802090D01*
X129602014Y-105827404D01*
X129605317Y-105838209D01*
X129628061Y-105868390D01*
X129634177Y-105877289D01*
X129654189Y-105909316D01*
X129662740Y-105915997D01*
X129665205Y-105918734D01*
X129667872Y-105921221D01*
X129674399Y-105929883D01*
X129706087Y-105950462D01*
X129714862Y-105956720D01*
X129744643Y-105979988D01*
X129754957Y-105983339D01*
X129754960Y-105983341D01*
X129780570Y-105991662D01*
X129790691Y-105995446D01*
X130258581Y-106194053D01*
X130733738Y-106395746D01*
X130787757Y-106440061D01*
X130809242Y-106506545D01*
X130791372Y-106574091D01*
X130742735Y-106619778D01*
X130625296Y-106681173D01*
X130625292Y-106681176D01*
X130619920Y-106683984D01*
X130472816Y-106802259D01*
X130351486Y-106946854D01*
X130299746Y-107040969D01*
X130266979Y-107100572D01*
X130260552Y-107112262D01*
X130258720Y-107118036D01*
X130258720Y-107118037D01*
X130246218Y-107157450D01*
X130203478Y-107292183D01*
X130199704Y-107325828D01*
X130186013Y-107447885D01*
X130182437Y-107479762D01*
X130198232Y-107667856D01*
X130250260Y-107849300D01*
X130253032Y-107854695D01*
X130253033Y-107854696D01*
X130293301Y-107933049D01*
X130336540Y-108017183D01*
X130340308Y-108021937D01*
X130425181Y-108129020D01*
X130453785Y-108165110D01*
X130458404Y-108169041D01*
X130592916Y-108283520D01*
X130592921Y-108283524D01*
X130597530Y-108287446D01*
X130762300Y-108379533D01*
X130941817Y-108437861D01*
X131129245Y-108460211D01*
X131135289Y-108459746D01*
X131135290Y-108459746D01*
X131190754Y-108455478D01*
X131317445Y-108445730D01*
X131499248Y-108394969D01*
X131597983Y-108345095D01*
X131662317Y-108312598D01*
X131662319Y-108312597D01*
X131667729Y-108309864D01*
X131816470Y-108193654D01*
X131851013Y-108153635D01*
X131866547Y-108138536D01*
X131873493Y-108132875D01*
X131873495Y-108132873D01*
X131878223Y-108129020D01*
X131882102Y-108124326D01*
X131882105Y-108124323D01*
X131975357Y-108011478D01*
X131975757Y-108010994D01*
X131981256Y-108004039D01*
X131981864Y-108003235D01*
X131983401Y-108001109D01*
X131986679Y-107996576D01*
X131986700Y-107996546D01*
X131987040Y-107996076D01*
X132001148Y-107975652D01*
X132067211Y-107880009D01*
X132067219Y-107879997D01*
X132067454Y-107879657D01*
X132071126Y-107874155D01*
X132071537Y-107873517D01*
X132075090Y-107867797D01*
X132140604Y-107758384D01*
X132141982Y-107756048D01*
X132142147Y-107755764D01*
X132143659Y-107753115D01*
X132199754Y-107653177D01*
X132201090Y-107650856D01*
X132206988Y-107640864D01*
X132258018Y-107593138D01*
X132326749Y-107580577D01*
X132347069Y-107584450D01*
X132358014Y-107587501D01*
X132360569Y-107588243D01*
X132469745Y-107621217D01*
X132469895Y-107621261D01*
X132470082Y-107621318D01*
X132471425Y-107621714D01*
X132472569Y-107622051D01*
X132472641Y-107622072D01*
X132472716Y-107622094D01*
X132472956Y-107622163D01*
X132473040Y-107622186D01*
X132473126Y-107622211D01*
X132475672Y-107622922D01*
X132475719Y-107622935D01*
X132475952Y-107623000D01*
X132598781Y-107656309D01*
X132599283Y-107656436D01*
X132599302Y-107656441D01*
X132605055Y-107657897D01*
X132605105Y-107657909D01*
X132605559Y-107658024D01*
X132606291Y-107658196D01*
X132610671Y-107659153D01*
X132612064Y-107659457D01*
X132612080Y-107659460D01*
X132612614Y-107659577D01*
X132613106Y-107659676D01*
X132613128Y-107659681D01*
X132682509Y-107673694D01*
X132750929Y-107687513D01*
X132751546Y-107687624D01*
X132751578Y-107687630D01*
X132757891Y-107688764D01*
X132759604Y-107689072D01*
X132760606Y-107689230D01*
X132763342Y-107689600D01*
X132768923Y-107690355D01*
X132768960Y-107690360D01*
X132769540Y-107690438D01*
X132921238Y-107707580D01*
X132945377Y-107707418D01*
X132960887Y-107708288D01*
X132983612Y-107710998D01*
X132989656Y-107710533D01*
X132989660Y-107710533D01*
X133088190Y-107702951D01*
X133171812Y-107696517D01*
X133303742Y-107659681D01*
X133347774Y-107647387D01*
X133347775Y-107647386D01*
X133353615Y-107645756D01*
X133359027Y-107643022D01*
X133364682Y-107640829D01*
X133364795Y-107641121D01*
X133372561Y-107638041D01*
X133374989Y-107637576D01*
X133380632Y-107635286D01*
X133380634Y-107635285D01*
X133440220Y-107611100D01*
X133509706Y-107582896D01*
X133510369Y-107582626D01*
X133632281Y-107532648D01*
X133632944Y-107532374D01*
X133739397Y-107488299D01*
X133739937Y-107488075D01*
X133836798Y-107447648D01*
X133836897Y-107447885D01*
X133837203Y-107447770D01*
X133837099Y-107447522D01*
X133930151Y-107408521D01*
X133930195Y-107408506D01*
X133930194Y-107408504D01*
X134025457Y-107368608D01*
X134025485Y-107368676D01*
X134025674Y-107368518D01*
X134128070Y-107325865D01*
X134128160Y-107325828D01*
X134244236Y-107277875D01*
X134244609Y-107277721D01*
X134380317Y-107222174D01*
X134380676Y-107222028D01*
X134525988Y-107163080D01*
X134525992Y-107163078D01*
X134531627Y-107160792D01*
X134542736Y-107153492D01*
X134564382Y-107142149D01*
X134939898Y-106990431D01*
X136460353Y-106376129D01*
X136506803Y-106367100D01*
X141331183Y-106367101D01*
X144381974Y-106367102D01*
X144406489Y-106370115D01*
X144406501Y-106370035D01*
X144409818Y-106370524D01*
X144412001Y-106370793D01*
X144418436Y-106372399D01*
X144520849Y-106377350D01*
X144567004Y-106379582D01*
X144581342Y-106381115D01*
X144687414Y-106398753D01*
X144703905Y-106402670D01*
X144744246Y-106415225D01*
X144782826Y-106427232D01*
X144799042Y-106433559D01*
X144865389Y-106464973D01*
X144878196Y-106471988D01*
X144945633Y-106514271D01*
X144953090Y-106519334D01*
X144961672Y-106525627D01*
X145031087Y-106576534D01*
X145032960Y-106577935D01*
X145123501Y-106647003D01*
X145123604Y-106647081D01*
X145123690Y-106647146D01*
X145125342Y-106648389D01*
X145125691Y-106648652D01*
X145125908Y-106648813D01*
X145128688Y-106650839D01*
X145128818Y-106650932D01*
X145128909Y-106650998D01*
X145226264Y-106720733D01*
X145231388Y-106724403D01*
X145237003Y-106728285D01*
X145237646Y-106728714D01*
X145238065Y-106728984D01*
X145238099Y-106729006D01*
X145242923Y-106732111D01*
X145243330Y-106732373D01*
X145243726Y-106732619D01*
X145243739Y-106732627D01*
X145361949Y-106805994D01*
X145361980Y-106806013D01*
X145362554Y-106806369D01*
X145370241Y-106810912D01*
X145371120Y-106811406D01*
X145378866Y-106815544D01*
X145379481Y-106815856D01*
X145379489Y-106815860D01*
X145511178Y-106882633D01*
X145514560Y-106884348D01*
X145518018Y-106885611D01*
X145518036Y-106885619D01*
X145519541Y-106886168D01*
X145530748Y-106891307D01*
X145530748Y-106891306D01*
X145536302Y-106893733D01*
X145541601Y-106896694D01*
X145615065Y-106920564D01*
X145713115Y-106952423D01*
X145713120Y-106952424D01*
X145718881Y-106954296D01*
X145723323Y-106954826D01*
X145784089Y-106988182D01*
X145817438Y-107049580D01*
X145812298Y-107119260D01*
X145770302Y-107175100D01*
X145704783Y-107199371D01*
X145696213Y-107199668D01*
X137159387Y-107199670D01*
X136856513Y-107199670D01*
X136838391Y-107197595D01*
X136831867Y-107197246D01*
X136821300Y-107194794D01*
X136810527Y-107196105D01*
X136806696Y-107195900D01*
X136802848Y-107196034D01*
X136792102Y-107194524D01*
X136781488Y-107196780D01*
X136781486Y-107196780D01*
X136755406Y-107202323D01*
X136744608Y-107204124D01*
X136724809Y-107206533D01*
X136718118Y-107207347D01*
X136707352Y-107208657D01*
X136697994Y-107213412D01*
X136691360Y-107214582D01*
X136672552Y-107225441D01*
X136657011Y-107233021D01*
X132338909Y-108977647D01*
X130499496Y-109720818D01*
X130429964Y-109727680D01*
X130404595Y-109719990D01*
X129212345Y-109213912D01*
X129158326Y-109169598D01*
X129145824Y-109146220D01*
X128314293Y-107088106D01*
X128307244Y-107063722D01*
X128306781Y-107061163D01*
X128306290Y-107055089D01*
X128302271Y-107040955D01*
X128287901Y-106990431D01*
X128288496Y-106920564D01*
X128326769Y-106862109D01*
X128334568Y-106855988D01*
X128343300Y-106849682D01*
X128364686Y-106834237D01*
X128377396Y-106826184D01*
X128427664Y-106798459D01*
X128456031Y-106782814D01*
X128461007Y-106780216D01*
X128461441Y-106780002D01*
X128496545Y-106762672D01*
X128567415Y-106727686D01*
X128567487Y-106727650D01*
X128567700Y-106727545D01*
X128569997Y-106726393D01*
X128688305Y-106666136D01*
X128688664Y-106665946D01*
X128688702Y-106665926D01*
X128693753Y-106663248D01*
X128694223Y-106662999D01*
X128694869Y-106662643D01*
X128700305Y-106659538D01*
X128700705Y-106659301D01*
X128700735Y-106659284D01*
X128816379Y-106590882D01*
X128816405Y-106590866D01*
X128817144Y-106590429D01*
X128826038Y-106584827D01*
X128826132Y-106584768D01*
X128826155Y-106584753D01*
X128826879Y-106584297D01*
X128827960Y-106583573D01*
X128831543Y-106581025D01*
X128836629Y-106577408D01*
X128836647Y-106577394D01*
X128837361Y-106576887D01*
X128896191Y-106532509D01*
X128937862Y-106501075D01*
X128937864Y-106501073D01*
X128940981Y-106498722D01*
X128959995Y-106480204D01*
X128970164Y-106471327D01*
X128984938Y-106459784D01*
X128984940Y-106459782D01*
X128989718Y-106456049D01*
X128999911Y-106444240D01*
X129109090Y-106317756D01*
X129109092Y-106317753D01*
X129113055Y-106313162D01*
X129116345Y-106307372D01*
X129161914Y-106227154D01*
X129206290Y-106149039D01*
X129238367Y-106052612D01*
X129263959Y-105975681D01*
X129263959Y-105975680D01*
X129265871Y-105969933D01*
X129267214Y-105959307D01*
X129289093Y-105786110D01*
X129289093Y-105786109D01*
X129289528Y-105782666D01*
X129289815Y-105762109D01*
X129289857Y-105759122D01*
X129289857Y-105759116D01*
X129289905Y-105755661D01*
X129282187Y-105676947D01*
X129295235Y-105608308D01*
X129343322Y-105557619D01*
X129411181Y-105540974D01*
X129477265Y-105563658D01*
G37*
G04 #@! TD.AperFunction*
G04 #@! TA.AperFunction,Conductor*
G36*
X139991501Y-102964890D02*
G01*
X140037256Y-103017694D01*
X140047200Y-103086852D01*
X140018175Y-103150408D01*
X139996883Y-103168689D01*
X139997371Y-103169338D01*
X139836575Y-103290067D01*
X139819444Y-103302929D01*
X139815928Y-103306608D01*
X139815926Y-103306610D01*
X139763366Y-103361611D01*
X139665726Y-103463786D01*
X139662862Y-103467985D01*
X139662860Y-103467987D01*
X139622774Y-103526751D01*
X139540344Y-103647589D01*
X139538202Y-103652203D01*
X139538200Y-103652207D01*
X139450338Y-103841490D01*
X139446665Y-103849403D01*
X139445303Y-103854313D01*
X139445303Y-103854314D01*
X139391823Y-104047159D01*
X139387206Y-104063806D01*
X139386666Y-104068859D01*
X139386665Y-104068864D01*
X139376654Y-104162542D01*
X139363562Y-104285042D01*
X139363855Y-104290125D01*
X139364708Y-104304921D01*
X139372342Y-104437305D01*
X139376370Y-104507169D01*
X139395008Y-104589872D01*
X139422710Y-104712794D01*
X139425285Y-104724222D01*
X139441472Y-104764085D01*
X139501788Y-104912625D01*
X139508993Y-104930370D01*
X139625247Y-105120079D01*
X139628579Y-105123925D01*
X139628580Y-105123927D01*
X139760481Y-105276198D01*
X139770924Y-105288254D01*
X139774834Y-105291500D01*
X139774838Y-105291504D01*
X139905695Y-105400143D01*
X139942112Y-105430377D01*
X140033646Y-105483865D01*
X140035657Y-105485040D01*
X140083607Y-105535859D01*
X140096471Y-105604534D01*
X140070164Y-105669262D01*
X140013039Y-105709492D01*
X139973097Y-105716101D01*
X136479170Y-105716100D01*
X136436196Y-105716100D01*
X136425387Y-105715628D01*
X136419855Y-105715144D01*
X136414919Y-105714712D01*
X136408486Y-105713979D01*
X136403096Y-105713222D01*
X136403144Y-105712881D01*
X136401617Y-105713015D01*
X136401571Y-105713544D01*
X136398569Y-105713281D01*
X136398567Y-105713281D01*
X136387760Y-105712336D01*
X136351257Y-105722117D01*
X136340710Y-105724455D01*
X136327532Y-105726779D01*
X136303522Y-105731012D01*
X136294125Y-105736438D01*
X136290667Y-105737696D01*
X136287358Y-105739239D01*
X136276883Y-105742046D01*
X136267915Y-105748326D01*
X136243243Y-105761722D01*
X134604821Y-106423685D01*
X134335471Y-106532509D01*
X134312487Y-106538219D01*
X134312677Y-106539151D01*
X134306704Y-106540370D01*
X134300649Y-106540997D01*
X134294834Y-106542793D01*
X134294832Y-106542793D01*
X134224834Y-106564408D01*
X134198663Y-106569490D01*
X134175451Y-106571446D01*
X134142481Y-106569814D01*
X134141858Y-106569699D01*
X134109950Y-106559163D01*
X134106394Y-106557424D01*
X134083096Y-106542609D01*
X134062008Y-106525627D01*
X134048346Y-106512808D01*
X134010269Y-106471235D01*
X134003477Y-106463153D01*
X133952654Y-106397165D01*
X133950278Y-106393976D01*
X133943693Y-106384833D01*
X133889221Y-106309210D01*
X133887881Y-106307372D01*
X133819418Y-106214510D01*
X133816394Y-106210512D01*
X133816076Y-106210102D01*
X133813056Y-106206301D01*
X133766694Y-106149356D01*
X133744560Y-106122170D01*
X133744558Y-106122167D01*
X133742276Y-106119365D01*
X133739679Y-106116842D01*
X133719439Y-106097180D01*
X133709750Y-106086613D01*
X133706383Y-106082485D01*
X133690133Y-106062561D01*
X133622897Y-106006939D01*
X133549369Y-105946111D01*
X133549366Y-105946109D01*
X133544694Y-105942244D01*
X133532651Y-105935732D01*
X133383998Y-105855356D01*
X133378655Y-105852467D01*
X133227581Y-105805701D01*
X133169365Y-105767075D01*
X133141271Y-105703103D01*
X133152223Y-105634097D01*
X133198743Y-105581966D01*
X133217802Y-105572278D01*
X133395771Y-105500374D01*
X133465303Y-105493512D01*
X133490672Y-105501202D01*
X134121352Y-105768907D01*
X134131116Y-105773564D01*
X134164458Y-105791292D01*
X134183919Y-105794027D01*
X134201857Y-105796548D01*
X134212493Y-105798519D01*
X134227961Y-105802090D01*
X134249298Y-105807016D01*
X134260063Y-105805694D01*
X134263725Y-105805886D01*
X134267387Y-105805758D01*
X134278129Y-105807268D01*
X134315074Y-105799414D01*
X134325737Y-105797630D01*
X134363231Y-105793027D01*
X134376807Y-105786110D01*
X134396890Y-105775877D01*
X134406727Y-105771393D01*
X136682164Y-104852061D01*
X137202754Y-104641730D01*
X137206795Y-104640179D01*
X137225884Y-104633231D01*
X137253343Y-104623237D01*
X137273232Y-104606548D01*
X137287228Y-104596379D01*
X137300045Y-104588370D01*
X137309244Y-104582622D01*
X137315922Y-104574074D01*
X137316699Y-104573375D01*
X137332300Y-104557219D01*
X137332965Y-104556426D01*
X137341277Y-104549452D01*
X137350448Y-104533567D01*
X137370152Y-104507890D01*
X137939749Y-103938292D01*
X138896514Y-102981524D01*
X138957837Y-102948039D01*
X138984195Y-102945205D01*
X139924463Y-102945205D01*
X139991501Y-102964890D01*
G37*
G04 #@! TD.AperFunction*
G04 #@! TA.AperFunction,Conductor*
G36*
X145060830Y-102945207D02*
G01*
X145127869Y-102964892D01*
X145173624Y-103017696D01*
X145183568Y-103086854D01*
X145154543Y-103150410D01*
X145125238Y-103173591D01*
X145125823Y-103174485D01*
X145120756Y-103177800D01*
X145115376Y-103180613D01*
X145110648Y-103184414D01*
X145110647Y-103184415D01*
X144980148Y-103289339D01*
X144970105Y-103297414D01*
X144850288Y-103440207D01*
X144823013Y-103489820D01*
X144765202Y-103594978D01*
X144760488Y-103603552D01*
X144758656Y-103609327D01*
X144706868Y-103772584D01*
X144704125Y-103781230D01*
X144701113Y-103808083D01*
X144684567Y-103955596D01*
X144683347Y-103966471D01*
X144698945Y-104152220D01*
X144700614Y-104158040D01*
X144700614Y-104158041D01*
X144746249Y-104317188D01*
X144750324Y-104331401D01*
X144753096Y-104336795D01*
X144753097Y-104336797D01*
X144826926Y-104480451D01*
X144835529Y-104497191D01*
X144912670Y-104594519D01*
X144935949Y-104623890D01*
X144951312Y-104643274D01*
X145093265Y-104764085D01*
X145098563Y-104767046D01*
X145242122Y-104847278D01*
X145255980Y-104855023D01*
X145433260Y-104912625D01*
X145439279Y-104913343D01*
X145439280Y-104913343D01*
X145491542Y-104919575D01*
X145555779Y-104947060D01*
X145594959Y-105004910D01*
X145596644Y-105074759D01*
X145560297Y-105134431D01*
X145534308Y-105152592D01*
X145530849Y-105154400D01*
X145505077Y-105167873D01*
X145487276Y-105175474D01*
X145475179Y-105179556D01*
X145475176Y-105179558D01*
X145469404Y-105181505D01*
X145464123Y-105184541D01*
X145340126Y-105255826D01*
X145340098Y-105255843D01*
X145339577Y-105256142D01*
X145339067Y-105256449D01*
X145339035Y-105256468D01*
X145332977Y-105260117D01*
X145332426Y-105260449D01*
X145331620Y-105260957D01*
X145324309Y-105265785D01*
X145260620Y-105309828D01*
X145229990Y-105331010D01*
X145210099Y-105344765D01*
X145209790Y-105344986D01*
X145209774Y-105344997D01*
X145205370Y-105348143D01*
X145205338Y-105348166D01*
X145204973Y-105348427D01*
X145204397Y-105348852D01*
X145199406Y-105352654D01*
X145100911Y-105430081D01*
X145100212Y-105430638D01*
X145099065Y-105431550D01*
X145098971Y-105431626D01*
X145098909Y-105431675D01*
X145098692Y-105431850D01*
X145096880Y-105433329D01*
X145034232Y-105485040D01*
X145010669Y-105504489D01*
X145008177Y-105506492D01*
X144935147Y-105563658D01*
X144934842Y-105563897D01*
X144926772Y-105569708D01*
X144868358Y-105608308D01*
X144863733Y-105611364D01*
X144850246Y-105619107D01*
X144819869Y-105634097D01*
X144788331Y-105649660D01*
X144771409Y-105656512D01*
X144696854Y-105680478D01*
X144679757Y-105684660D01*
X144577831Y-105702042D01*
X144563096Y-105703656D01*
X144548608Y-105704371D01*
X144423932Y-105710520D01*
X144423928Y-105710521D01*
X144418223Y-105710802D01*
X144410064Y-105712741D01*
X144381392Y-105716102D01*
X144342235Y-105716102D01*
X141476781Y-105716101D01*
X141409742Y-105696416D01*
X141363987Y-105643612D01*
X141354043Y-105574454D01*
X141383068Y-105510898D01*
X141412737Y-105486051D01*
X141416058Y-105484424D01*
X141597195Y-105355220D01*
X141603274Y-105349163D01*
X141691416Y-105261327D01*
X141754798Y-105198166D01*
X141884633Y-105017481D01*
X141968753Y-104847278D01*
X141980958Y-104822584D01*
X141980959Y-104822582D01*
X141983215Y-104818017D01*
X142047895Y-104605130D01*
X142069989Y-104437305D01*
X142076505Y-104387812D01*
X142076505Y-104387809D01*
X142076936Y-104384537D01*
X142077131Y-104376586D01*
X142078476Y-104321522D01*
X142078557Y-104318214D01*
X142072967Y-104250215D01*
X142067670Y-104185794D01*
X142060326Y-104096466D01*
X142006123Y-103880674D01*
X141995795Y-103856920D01*
X141977114Y-103813958D01*
X141917403Y-103676632D01*
X141885137Y-103626756D01*
X141799311Y-103494089D01*
X141799309Y-103494087D01*
X141796549Y-103489820D01*
X141646806Y-103325255D01*
X141642821Y-103322108D01*
X141642818Y-103322105D01*
X141490781Y-103202034D01*
X141472197Y-103187357D01*
X141467748Y-103184901D01*
X141467742Y-103184897D01*
X141454820Y-103177764D01*
X141405642Y-103128132D01*
X141391104Y-103059792D01*
X141415821Y-102994440D01*
X141471947Y-102952826D01*
X141514746Y-102945206D01*
X145060830Y-102945207D01*
G37*
G04 #@! TD.AperFunction*
G04 #@! TA.AperFunction,Conductor*
G36*
X148687797Y-101786966D02*
G01*
X148742815Y-101810320D01*
X148764159Y-101822671D01*
X148764219Y-101822573D01*
X148768148Y-101824979D01*
X148769178Y-101825575D01*
X148769418Y-101825757D01*
X148769421Y-101825759D01*
X148774275Y-101829431D01*
X148779755Y-101832087D01*
X148779757Y-101832088D01*
X148904151Y-101892374D01*
X148917175Y-101899685D01*
X149003537Y-101955267D01*
X149017636Y-101965830D01*
X149076612Y-102016946D01*
X149089396Y-102029778D01*
X149134612Y-102082334D01*
X149143807Y-102094453D01*
X149186094Y-102157924D01*
X149191030Y-102165981D01*
X149220807Y-102219036D01*
X149237066Y-102248005D01*
X149238330Y-102250314D01*
X149290639Y-102348331D01*
X149290995Y-102348999D01*
X149292282Y-102351374D01*
X149292445Y-102351670D01*
X149294029Y-102354494D01*
X149305860Y-102375200D01*
X149351501Y-102455076D01*
X149355772Y-102462551D01*
X149359311Y-102468509D01*
X149359717Y-102469167D01*
X149359938Y-102469512D01*
X149359969Y-102469562D01*
X149362469Y-102473469D01*
X149363299Y-102474767D01*
X149439508Y-102589780D01*
X149444645Y-102597175D01*
X149445246Y-102598001D01*
X149450668Y-102605122D01*
X149451099Y-102605664D01*
X149451102Y-102605667D01*
X149541214Y-102718811D01*
X149541219Y-102718816D01*
X149543525Y-102721712D01*
X149562257Y-102740204D01*
X149572306Y-102751410D01*
X149587231Y-102770241D01*
X149591838Y-102774162D01*
X149591842Y-102774166D01*
X149718500Y-102881959D01*
X149729184Y-102891052D01*
X149734482Y-102894013D01*
X149878755Y-102974644D01*
X149891899Y-102981990D01*
X149960996Y-103004441D01*
X150045866Y-103032017D01*
X150069179Y-103039592D01*
X150075200Y-103040310D01*
X150097725Y-103042996D01*
X150254270Y-103061663D01*
X150260313Y-103061198D01*
X150260315Y-103061198D01*
X150317754Y-103056778D01*
X150440123Y-103047362D01*
X150597184Y-103003510D01*
X150667048Y-103004441D01*
X150725317Y-103042996D01*
X150753492Y-103106932D01*
X150742628Y-103175952D01*
X150725523Y-103202643D01*
X150699012Y-103234238D01*
X150680644Y-103267649D01*
X150621533Y-103375172D01*
X150609212Y-103397583D01*
X150607380Y-103403358D01*
X150567820Y-103528068D01*
X150552849Y-103575261D01*
X150548550Y-103613589D01*
X150533476Y-103747978D01*
X150532071Y-103760502D01*
X150532579Y-103766546D01*
X150532494Y-103772610D01*
X150530646Y-103772584D01*
X150518366Y-103832583D01*
X150469572Y-103882593D01*
X150401487Y-103898285D01*
X150335727Y-103874676D01*
X150318879Y-103858710D01*
X150318527Y-103859060D01*
X150314256Y-103854759D01*
X150310420Y-103850056D01*
X150250524Y-103800505D01*
X150171470Y-103735105D01*
X150171467Y-103735103D01*
X150166795Y-103731238D01*
X150111502Y-103701341D01*
X150008157Y-103645462D01*
X150008153Y-103645460D01*
X150002826Y-103642580D01*
X149824759Y-103587460D01*
X149639378Y-103567975D01*
X149633345Y-103568524D01*
X149633341Y-103568524D01*
X149459784Y-103584319D01*
X149459783Y-103584319D01*
X149453742Y-103584869D01*
X149447923Y-103586582D01*
X149447921Y-103586582D01*
X149419395Y-103594978D01*
X149274924Y-103637499D01*
X149109733Y-103723858D01*
X149105005Y-103727659D01*
X149105004Y-103727660D01*
X148972233Y-103834411D01*
X148964462Y-103840659D01*
X148844645Y-103983452D01*
X148825744Y-104017833D01*
X148766591Y-104125432D01*
X148754845Y-104146797D01*
X148753013Y-104152572D01*
X148700794Y-104317188D01*
X148698482Y-104324475D01*
X148697185Y-104336040D01*
X148678560Y-104502088D01*
X148677704Y-104509716D01*
X148678212Y-104515760D01*
X148678127Y-104521824D01*
X148676279Y-104521798D01*
X148663999Y-104581797D01*
X148615205Y-104631807D01*
X148547120Y-104647499D01*
X148481360Y-104623890D01*
X148464511Y-104607923D01*
X148464159Y-104608273D01*
X148459888Y-104603972D01*
X148456052Y-104599269D01*
X148378300Y-104534946D01*
X148317102Y-104484318D01*
X148317099Y-104484316D01*
X148312427Y-104480451D01*
X148232797Y-104437395D01*
X148153789Y-104394675D01*
X148153785Y-104394673D01*
X148148458Y-104391793D01*
X147970391Y-104336673D01*
X147926568Y-104332067D01*
X147861954Y-104305482D01*
X147821969Y-104248185D01*
X147819309Y-104178366D01*
X147854818Y-104118192D01*
X147883621Y-104098065D01*
X147999074Y-104039746D01*
X147999079Y-104039743D01*
X148004489Y-104037010D01*
X148009268Y-104033276D01*
X148009273Y-104033273D01*
X148087036Y-103972517D01*
X148151376Y-103922249D01*
X148273175Y-103781143D01*
X148277326Y-103773837D01*
X148362251Y-103624341D01*
X148365247Y-103619067D01*
X148424085Y-103442194D01*
X148426346Y-103424301D01*
X148439579Y-103319548D01*
X148447448Y-103257261D01*
X148447820Y-103230593D01*
X148447020Y-103222432D01*
X148430222Y-103051116D01*
X148430222Y-103051114D01*
X148429630Y-103045080D01*
X148375754Y-102866633D01*
X148370263Y-102856305D01*
X148291092Y-102707407D01*
X148291092Y-102707406D01*
X148288243Y-102702049D01*
X148187653Y-102578714D01*
X148174266Y-102562300D01*
X148174265Y-102562299D01*
X148170431Y-102557598D01*
X148112730Y-102509863D01*
X148031481Y-102442647D01*
X148031478Y-102442645D01*
X148026806Y-102438780D01*
X147954335Y-102399595D01*
X147868168Y-102353004D01*
X147868164Y-102353002D01*
X147862837Y-102350122D01*
X147818495Y-102336396D01*
X147760274Y-102297767D01*
X147732180Y-102233795D01*
X147743131Y-102164789D01*
X147789652Y-102112658D01*
X147808708Y-102102971D01*
X148148145Y-101965830D01*
X148592897Y-101786139D01*
X148662429Y-101779277D01*
X148687797Y-101786966D01*
G37*
G04 #@! TD.AperFunction*
G04 #@! TA.AperFunction,Conductor*
G36*
X132977892Y-101169071D02*
G01*
X133116710Y-101197110D01*
X133117442Y-101197282D01*
X133240269Y-101230592D01*
X133240510Y-101230661D01*
X133353427Y-101264763D01*
X133461810Y-101294975D01*
X133462041Y-101295021D01*
X133462042Y-101295021D01*
X133570812Y-101316563D01*
X133570817Y-101316564D01*
X133571157Y-101316631D01*
X133571498Y-101316656D01*
X133571506Y-101316657D01*
X133686658Y-101325073D01*
X133687082Y-101325104D01*
X133687507Y-101325073D01*
X133814782Y-101315798D01*
X133814787Y-101315797D01*
X133815202Y-101315767D01*
X133961131Y-101283994D01*
X133961458Y-101283880D01*
X133961463Y-101283879D01*
X134119970Y-101228810D01*
X134128910Y-101229332D01*
X134134658Y-101235479D01*
X134154213Y-101283879D01*
X134219968Y-101446627D01*
X134219890Y-101455582D01*
X134214035Y-101461627D01*
X134061766Y-101532119D01*
X134061759Y-101532123D01*
X134061441Y-101532270D01*
X134061142Y-101532455D01*
X133934740Y-101610573D01*
X133934736Y-101610576D01*
X133934396Y-101610786D01*
X133835747Y-101693069D01*
X133758243Y-101779693D01*
X133758041Y-101779984D01*
X133758036Y-101779990D01*
X133694746Y-101871059D01*
X133694628Y-101871229D01*
X133637648Y-101968250D01*
X133637618Y-101968304D01*
X133580130Y-102071186D01*
X133579963Y-102071475D01*
X133514776Y-102180709D01*
X133514368Y-102181344D01*
X133434262Y-102297544D01*
X133433662Y-102298338D01*
X133358326Y-102389555D01*
X133336445Y-102416048D01*
X133328535Y-102420244D01*
X133323064Y-102419454D01*
X132914945Y-102255552D01*
X132662843Y-102154307D01*
X132662829Y-102154301D01*
X132565442Y-102115191D01*
X132423550Y-102058206D01*
X132417151Y-102051944D01*
X132416216Y-102047019D01*
X132416233Y-102046433D01*
X132817200Y-101150912D01*
X132977892Y-101169071D01*
G37*
G04 #@! TD.AperFunction*
M02*
