M48
; DRILL file {KiCad (6.0.6-0)} date Tuesday, 10 January 2023 at 14:02:26
; FORMAT={-:-/ absolute / inch / decimal}
; #@! TF.CreationDate,2023-01-10T14:02:26-05:00
; #@! TF.GenerationSoftware,Kicad,Pcbnew,(6.0.6-0)
; #@! TF.FileFunction,MixedPlating,1,2
FMAT,2
INCH
; #@! TA.AperFunction,Plated,PTH,ViaDrill
T1C0.0118
; #@! TA.AperFunction,Plated,PTH,ComponentDrill
T2C0.0276
; #@! TA.AperFunction,Plated,PTH,ComponentDrill
T3C0.0315
; #@! TA.AperFunction,Plated,PTH,ComponentDrill
T4C0.0394
%
G90
G05
T1
X5.0898Y-4.2256
X5.4219Y-4.2043
X5.4572Y-4.119
X5.6444Y-4.106
X5.8689Y-4.0594
T4
X5.0383Y-4.0885
X5.0521Y-4.1636
X5.126Y-4.0344
X5.1605Y-4.1198
X5.1634Y-4.232
X5.227Y-4.0123
X5.2364Y-4.2025
X5.2693Y-4.0759
X5.7338Y-4.0937
X5.745Y-4.1741
X5.8068Y-4.0642
X5.818Y-4.1446
X5.8475Y-4.2176
X5.8911Y-4.1151
X5.9163Y-4.02
X5.9205Y-4.1881
X5.9641Y-4.0856
T2
G00X4.975Y-4.2104
M15
G01X4.9603Y-4.1739
M16
G05
G00X5.3572Y-4.056
M15
G01X5.3425Y-4.0195
M16
G05
T3
G00X5.7303Y-3.9495
M15
G01X5.8179Y-3.9141
M16
G05
T0
M30
