G04 #@! TF.GenerationSoftware,KiCad,Pcbnew,(6.0.6-0)*
G04 #@! TF.CreationDate,2023-01-29T13:03:51-05:00*
G04 #@! TF.ProjectId,RGB Blaster 8DIN Adapter,52474220-426c-4617-9374-657220384449,1*
G04 #@! TF.SameCoordinates,Original*
G04 #@! TF.FileFunction,Legend,Bot*
G04 #@! TF.FilePolarity,Positive*
%FSLAX46Y46*%
G04 Gerber Fmt 4.6, Leading zero omitted, Abs format (unit mm)*
G04 Created by KiCad (PCBNEW (6.0.6-0)) date 2023-01-29 13:03:51*
%MOMM*%
%LPD*%
G01*
G04 APERTURE LIST*
G04 Aperture macros list*
%AMRoundRect*
0 Rectangle with rounded corners*
0 $1 Rounding radius*
0 $2 $3 $4 $5 $6 $7 $8 $9 X,Y pos of 4 corners*
0 Add a 4 corners polygon primitive as box body*
4,1,4,$2,$3,$4,$5,$6,$7,$8,$9,$2,$3,0*
0 Add four circle primitives for the rounded corners*
1,1,$1+$1,$2,$3*
1,1,$1+$1,$4,$5*
1,1,$1+$1,$6,$7*
1,1,$1+$1,$8,$9*
0 Add four rect primitives between the rounded corners*
20,1,$1+$1,$2,$3,$4,$5,0*
20,1,$1+$1,$4,$5,$6,$7,0*
20,1,$1+$1,$6,$7,$8,$9,0*
20,1,$1+$1,$8,$9,$2,$3,0*%
%AMFreePoly0*
4,1,16,0.535921,0.785921,0.542268,0.778179,1.042268,0.028179,1.049813,-0.009963,1.042268,-0.028179,0.542268,-0.778179,0.509963,-0.799813,0.500000,-0.800800,-0.500000,-0.800800,-0.535921,-0.785921,-0.550800,-0.750000,-0.550800,0.750000,-0.535920,0.785921,-0.500000,0.800800,0.500000,0.800800,0.535921,0.785921,0.535921,0.785921,$1*%
%AMFreePoly1*
4,1,16,0.535921,0.785921,0.550800,0.750000,0.550800,-0.750000,0.535920,-0.785921,0.500000,-0.800800,-0.650000,-0.800800,-0.685921,-0.785921,-0.700800,-0.750000,-0.692268,-0.721821,-0.211054,0.000000,-0.692268,0.721821,-0.699813,0.759963,-0.678179,0.792268,-0.649999,0.800800,0.500000,0.800800,0.535921,0.785921,0.535921,0.785921,$1*%
G04 Aperture macros list end*
%ADD10C,0.127000*%
%ADD11C,0.150000*%
%ADD12C,0.120000*%
%ADD13C,1.601600*%
%ADD14RoundRect,0.050800X-1.573413X-1.444601X2.135323X0.053825X1.573413X1.444601X-2.135323X-0.053825X0*%
%ADD15C,1.625600*%
%ADD16RoundRect,0.350800X-0.021530X0.854129X-0.577840X0.629365X0.021530X-0.854129X0.577840X-0.629365X0*%
%ADD17FreePoly0,112.000000*%
%ADD18FreePoly1,112.000000*%
%ADD19RoundRect,0.288300X0.142827X0.313858X-0.320765X0.126555X-0.142827X-0.313858X0.320765X-0.126555X0*%
G04 APERTURE END LIST*
D10*
X142398225Y-102087714D02*
X142398225Y-101325714D01*
X142035368Y-101579714D02*
X142035368Y-102087714D01*
X142035368Y-101652285D02*
X141999082Y-101616000D01*
X141926510Y-101579714D01*
X141817653Y-101579714D01*
X141745082Y-101616000D01*
X141708796Y-101688571D01*
X141708796Y-102087714D01*
X141382225Y-102051428D02*
X141309653Y-102087714D01*
X141164510Y-102087714D01*
X141091939Y-102051428D01*
X141055653Y-101978857D01*
X141055653Y-101942571D01*
X141091939Y-101870000D01*
X141164510Y-101833714D01*
X141273368Y-101833714D01*
X141345939Y-101797428D01*
X141382225Y-101724857D01*
X141382225Y-101688571D01*
X141345939Y-101616000D01*
X141273368Y-101579714D01*
X141164510Y-101579714D01*
X141091939Y-101616000D01*
X140729082Y-102087714D02*
X140729082Y-101579714D01*
X140729082Y-101325714D02*
X140765368Y-101362000D01*
X140729082Y-101398285D01*
X140692796Y-101362000D01*
X140729082Y-101325714D01*
X140729082Y-101398285D01*
X140039653Y-102087714D02*
X140039653Y-101325714D01*
X140039653Y-102051428D02*
X140112225Y-102087714D01*
X140257368Y-102087714D01*
X140329939Y-102051428D01*
X140366225Y-102015142D01*
X140402510Y-101942571D01*
X140402510Y-101724857D01*
X140366225Y-101652285D01*
X140329939Y-101616000D01*
X140257368Y-101579714D01*
X140112225Y-101579714D01*
X140039653Y-101616000D01*
X139386510Y-102051428D02*
X139459082Y-102087714D01*
X139604225Y-102087714D01*
X139676796Y-102051428D01*
X139713082Y-101978857D01*
X139713082Y-101688571D01*
X139676796Y-101616000D01*
X139604225Y-101579714D01*
X139459082Y-101579714D01*
X139386510Y-101616000D01*
X139350225Y-101688571D01*
X139350225Y-101761142D01*
X139713082Y-101833714D01*
X148507073Y-101448665D02*
X148372499Y-101503036D01*
X148291619Y-101496578D01*
X148244383Y-101476528D01*
X148136317Y-101402783D01*
X148048302Y-101281801D01*
X147939559Y-101012653D01*
X147946017Y-100931773D01*
X147966068Y-100884537D01*
X148019762Y-100823708D01*
X148154336Y-100769336D01*
X148235216Y-100775794D01*
X148282452Y-100795845D01*
X148343282Y-100849539D01*
X148411246Y-101017756D01*
X148404788Y-101098636D01*
X148384738Y-101145873D01*
X148331043Y-101206702D01*
X148196469Y-101261074D01*
X148115589Y-101254616D01*
X148068353Y-101234565D01*
X148007524Y-101180871D01*
X147867846Y-101706929D02*
X147582396Y-101000415D01*
X147414178Y-101068379D01*
X147326841Y-101142801D01*
X147286739Y-101237274D01*
X147280282Y-101318154D01*
X147301010Y-101466321D01*
X147341788Y-101567252D01*
X147429803Y-101688233D01*
X147490632Y-101741927D01*
X147585105Y-101782028D01*
X147699629Y-101774893D01*
X147867846Y-101706929D01*
X147161332Y-101992379D02*
X146875882Y-101285865D01*
X146824897Y-102128308D02*
X146539447Y-101421794D01*
X146421175Y-102291422D01*
X146135724Y-101584908D01*
D11*
X138685787Y-104929272D02*
X138953363Y-105591546D01*
X139051030Y-105706162D01*
X139175010Y-105758789D01*
X139325303Y-105749425D01*
X139413606Y-105713748D01*
X138618877Y-106034840D02*
X138244271Y-105107656D01*
X137891058Y-105250363D01*
X137820593Y-105330192D01*
X137794280Y-105392182D01*
X137785805Y-105498323D01*
X137839320Y-105630778D01*
X137919149Y-105701243D01*
X137981139Y-105727556D01*
X138087280Y-105736031D01*
X138440493Y-105593324D01*
X137206026Y-106605669D02*
X137735845Y-106391608D01*
X137470936Y-106498638D02*
X137096329Y-105571455D01*
X137238147Y-105668233D01*
X137362127Y-105720859D01*
X137468269Y-105729334D01*
X129040478Y-99081941D02*
X129171155Y-98515556D01*
X129570297Y-98867880D02*
X129195691Y-97940697D01*
X128842478Y-98083404D01*
X128772013Y-98163232D01*
X128745700Y-98225222D01*
X128737225Y-98331364D01*
X128790740Y-98463819D01*
X128870569Y-98534284D01*
X128932559Y-98560597D01*
X129038700Y-98569072D01*
X129391913Y-98426364D01*
X128348335Y-98385768D02*
X128286345Y-98359455D01*
X128180204Y-98350980D01*
X127959446Y-98440172D01*
X127888981Y-98520001D01*
X127862668Y-98581991D01*
X127854193Y-98688132D01*
X127889870Y-98776435D01*
X127987536Y-98891052D01*
X128731417Y-99206810D01*
X128157446Y-99438710D01*
X132961017Y-108865698D02*
X133091694Y-108299313D01*
X133490836Y-108651637D02*
X133116230Y-107724454D01*
X132763017Y-107867161D01*
X132692552Y-107946989D01*
X132666239Y-108008979D01*
X132657764Y-108115121D01*
X132711279Y-108247576D01*
X132791108Y-108318041D01*
X132853098Y-108344354D01*
X132959239Y-108352829D01*
X133312452Y-108210121D01*
X131916550Y-108568667D02*
X132166288Y-109186790D01*
X131994601Y-108126262D02*
X132482935Y-108699344D01*
X131908964Y-108931244D01*
D12*
X137309733Y-107672092D02*
X136260835Y-105075977D01*
X134406467Y-105825190D02*
X135455365Y-108421305D01*
X136260835Y-105075977D02*
X134406467Y-105825190D01*
X135455365Y-108421305D02*
X137309733Y-107672092D01*
X129566148Y-100251592D02*
X129093796Y-100442435D01*
X129174684Y-99282685D02*
X128702332Y-99473528D01*
X133112970Y-109004422D02*
X132640618Y-109195265D01*
X133504434Y-109973329D02*
X133032082Y-110164172D01*
%LPC*%
D13*
X150381923Y-106377418D03*
X148527555Y-107126632D03*
X151487077Y-103773837D03*
X149632710Y-104523051D03*
X147778342Y-105272264D03*
X145923974Y-106021477D03*
X150274272Y-102106773D03*
X147492721Y-103230593D03*
X145638353Y-103979806D03*
D14*
X146662140Y-99866795D03*
D15*
X133003867Y-106744053D03*
X131149500Y-107493266D03*
X133839492Y-103526751D03*
X131076484Y-104643079D03*
D16*
X135886229Y-102559607D03*
X126178614Y-106481738D03*
D15*
X128322748Y-105755661D03*
X132766138Y-101911199D03*
X130199905Y-102473469D03*
X127972597Y-103847915D03*
D17*
X136129690Y-107420849D03*
D18*
X135586510Y-106076433D03*
D19*
X129980295Y-99520731D03*
X128288185Y-100204389D03*
X133918581Y-109242468D03*
X132226471Y-109926126D03*
M02*
